<?xml version="1.0" standalone="no"?>
<!DOCTYPE svg PUBLIC "-//W3C//DTD SVG 20010904//EN"
 "http://www.w3.org/TR/2001/REC-SVG-20010904/DTD/svg10.dtd">
<svg version="1.0" xmlns="http://www.w3.org/2000/svg"
 width="2000.000000pt" height="2000.000000pt" viewBox="0 0 2000.000000 2000.000000"
 preserveAspectRatio="xMidYMid meet">
<metadata>
Created by potrace 1.11, written by Peter Selinger 2001-2013
</metadata>
<g transform="translate(0.000000,2000.000000) scale(0.100000,-0.100000)"
fill="#000000" stroke="none">
<path d="M9653 19092 c-118 -1 -193 -6 -193 -12 0 -6 -29 -10 -65 -10 -45 0
-65 4 -65 13 0 9 -2 9 -8 1 -4 -8 -63 -14 -161 -18 -107 -4 -157 -10 -163 -19
-6 -9 -12 -9 -27 0 -13 8 -22 9 -26 3 -3 -6 -42 -10 -85 -10 -43 0 -91 -5
-107 -11 -15 -6 -73 -14 -128 -19 -55 -5 -122 -13 -150 -19 -27 -5 -81 -15
-120 -21 -38 -7 -95 -16 -125 -21 -30 -5 -95 -14 -145 -19 -49 -6 -92 -15 -95
-19 -3 -5 -29 -10 -59 -13 -29 -3 -57 -11 -62 -19 -7 -12 -9 -11 -9 1 0 10 -3
11 -8 4 -4 -6 -33 -14 -64 -18 -32 -4 -58 -11 -58 -15 0 -5 -25 -11 -56 -13
-31 -3 -59 -9 -62 -14 -4 -5 -23 -11 -42 -12 -19 -2 -53 -9 -75 -17 -22 -8
-57 -16 -77 -20 -21 -3 -38 -9 -38 -13 0 -5 -19 -9 -42 -11 -24 -1 -45 -6 -46
-12 -2 -5 -8 -7 -13 -3 -5 3 -9 0 -9 -5 0 -6 -11 -11 -24 -11 -14 0 -36 -4
-50 -10 -14 -5 -42 -10 -62 -12 -20 -1 -38 -7 -40 -13 -3 -6 -21 -12 -42 -13
-20 -2 -42 -9 -48 -17 -6 -9 -27 -15 -48 -15 -25 0 -36 -4 -36 -15 0 -11 -11
-15 -37 -15 -21 0 -47 -7 -57 -15 -11 -8 -31 -15 -45 -15 -14 0 -35 -7 -45
-15 -11 -8 -31 -15 -44 -15 -13 0 -30 -7 -38 -15 -13 -13 -42 -20 -66 -16 -5
0 -8 -6 -8 -14 0 -10 -11 -15 -35 -15 -19 0 -35 -4 -35 -9 0 -5 -18 -11 -40
-15 -22 -3 -40 -11 -40 -16 0 -6 -13 -10 -30 -10 -16 0 -30 -5 -30 -11 0 -5
-4 -8 -9 -5 -5 4 -11 2 -13 -4 -1 -5 -15 -11 -30 -12 -16 -1 -28 -8 -28 -15 0
-8 -12 -13 -30 -13 -20 0 -30 -5 -30 -15 0 -10 -10 -15 -30 -15 -16 0 -30 -4
-30 -10 0 -5 -18 -13 -40 -16 -24 -4 -40 -12 -40 -20 0 -9 -11 -14 -29 -14
-16 0 -31 -5 -33 -12 -2 -6 -15 -13 -29 -15 -13 -2 -25 -8 -27 -13 -2 -6 -13
-10 -25 -10 -35 0 -67 -11 -61 -21 5 -8 -12 -13 -43 -12 -7 1 -13 -5 -13 -13
0 -13 -15 -18 -47 -17 -7 1 -13 -5 -13 -13 0 -8 -8 -14 -19 -14 -10 0 -24 -7
-31 -15 -7 -8 -19 -15 -26 -15 -8 0 -14 -4 -14 -10 0 -5 -3 -10 -7 -9 -16 2
-53 -14 -53 -23 0 -5 -4 -6 -10 -3 -5 3 -10 1 -10 -4 0 -6 -9 -11 -20 -11 -11
0 -20 -5 -20 -11 0 -5 -4 -7 -10 -4 -5 3 -10 1 -10 -4 0 -6 -9 -11 -20 -11
-11 0 -20 -4 -20 -10 0 -5 -11 -10 -25 -10 -16 0 -25 -6 -25 -15 0 -10 -10
-15 -30 -15 -20 0 -30 -5 -30 -15 0 -9 -9 -15 -25 -15 -16 0 -25 -6 -25 -15 0
-13 -25 -21 -52 -16 -5 0 -8 -6 -8 -14 0 -8 -9 -15 -20 -15 -11 0 -20 -4 -20
-10 0 -5 -11 -12 -25 -16 -14 -3 -25 -12 -25 -20 0 -9 -11 -14 -30 -14 -18 0
-30 -5 -30 -13 0 -8 -18 -20 -40 -27 -22 -7 -40 -19 -40 -27 0 -8 -12 -13 -30
-13 -19 0 -30 -5 -30 -14 0 -8 -11 -17 -25 -20 -14 -4 -25 -11 -25 -16 0 -6
-9 -10 -20 -10 -11 0 -20 -6 -20 -14 0 -8 -11 -16 -23 -20 -13 -3 -35 -17 -50
-31 -14 -15 -35 -27 -46 -28 -12 -1 -21 -7 -21 -14 0 -7 -7 -13 -15 -13 -8 0
-15 -4 -15 -10 0 -5 -11 -10 -25 -10 -14 0 -28 -7 -31 -15 -4 -8 -12 -15 -20
-15 -8 0 -14 -7 -14 -15 0 -13 -18 -20 -42 -16 -5 0 -8 -6 -8 -14 0 -8 -7 -15
-15 -15 -8 0 -15 -7 -15 -15 0 -13 -26 -21 -53 -16 -5 1 -5 -3 -2 -9 4 -7 -2
-14 -14 -17 -12 -3 -21 -12 -21 -19 0 -8 -5 -14 -11 -14 -6 0 -17 -7 -25 -15
-9 -8 -24 -15 -35 -15 -10 0 -19 -7 -19 -15 0 -8 -7 -15 -15 -15 -8 0 -15 -4
-15 -10 0 -5 -7 -10 -15 -10 -8 0 -15 -7 -15 -15 0 -13 -18 -20 -42 -16 -5 0
-8 -6 -8 -14 0 -8 -7 -15 -15 -15 -8 0 -15 -7 -15 -15 0 -8 -5 -15 -11 -15 -6
0 -17 -7 -25 -15 -9 -8 -24 -15 -35 -15 -10 0 -19 -7 -19 -15 0 -8 -7 -15 -15
-15 -8 0 -15 -7 -15 -15 0 -8 -7 -15 -15 -15 -8 0 -15 -7 -15 -16 0 -8 -5 -12
-10 -9 -6 3 -13 -1 -16 -9 -3 -9 -17 -16 -30 -16 -15 0 -24 -6 -24 -15 0 -8
-7 -15 -15 -15 -8 0 -15 -7 -15 -15 0 -8 -7 -15 -15 -15 -8 0 -15 -7 -15 -15
0 -8 -5 -15 -11 -15 -7 0 -22 -11 -35 -25 -13 -14 -27 -26 -31 -27 -31 -5 -43
-12 -43 -24 0 -8 -4 -14 -10 -14 -5 0 -10 -7 -10 -15 0 -8 -7 -15 -15 -15 -8
0 -15 -4 -15 -10 0 -5 -7 -10 -15 -10 -8 0 -15 -7 -15 -15 0 -8 -7 -15 -15
-15 -8 0 -15 -6 -15 -14 0 -7 -9 -16 -21 -19 -13 -4 -18 -10 -13 -18 4 -8 3
-10 -5 -5 -6 4 -14 1 -17 -8 -3 -8 -19 -18 -35 -21 -16 -4 -29 -13 -29 -21 0
-8 -4 -14 -10 -14 -5 0 -10 -7 -10 -15 0 -8 -7 -15 -15 -15 -8 0 -15 -7 -15
-15 0 -8 -7 -15 -15 -15 -8 0 -15 -4 -15 -10 0 -5 -7 -10 -15 -10 -8 0 -15 -7
-15 -15 0 -8 -7 -15 -15 -15 -8 0 -15 -7 -15 -15 0 -8 -7 -15 -15 -15 -8 0
-15 -7 -15 -15 0 -8 -7 -15 -15 -15 -8 0 -15 -7 -15 -15 0 -8 -7 -15 -15 -15
-8 0 -15 -7 -15 -15 0 -8 -7 -15 -15 -15 -8 0 -15 -5 -15 -11 0 -14 -55 -69
-69 -69 -6 0 -11 -7 -11 -15 0 -8 -7 -15 -15 -15 -8 0 -15 -7 -15 -15 0 -8 -7
-15 -15 -15 -8 0 -15 -7 -15 -15 0 -8 -7 -15 -15 -15 -8 0 -15 -7 -15 -15 0
-8 -7 -15 -15 -15 -8 0 -15 -7 -15 -15 0 -8 -7 -15 -15 -15 -8 0 -15 -7 -15
-15 0 -8 -7 -15 -15 -15 -8 0 -15 -5 -15 -11 0 -14 -25 -39 -39 -39 -6 0 -11
-7 -11 -15 0 -8 -6 -15 -14 -15 -7 0 -16 -9 -19 -21 -4 -13 -10 -18 -18 -13
-7 4 -10 3 -6 -3 4 -5 -3 -19 -13 -31 -11 -12 -20 -25 -20 -31 0 -5 -7 -11
-15 -15 -8 -3 -15 -12 -15 -21 0 -8 -7 -15 -15 -15 -8 0 -15 -7 -15 -15 0 -8
-7 -15 -15 -15 -8 0 -15 -4 -15 -10 0 -5 -7 -10 -15 -10 -8 0 -15 -7 -15 -15
0 -8 -4 -15 -9 -15 -5 0 -11 -9 -14 -21 -3 -12 -10 -18 -17 -14 -6 3 -10 3 -9
-2 5 -22 -39 -86 -53 -77 -4 3 -8 -4 -8 -15 0 -12 -7 -21 -15 -21 -8 0 -15 -7
-15 -15 0 -8 -6 -15 -14 -15 -7 0 -16 -9 -19 -21 -3 -12 -10 -18 -17 -14 -6 3
-10 3 -9 -2 4 -24 -3 -43 -16 -43 -8 0 -15 -7 -15 -15 0 -8 -4 -15 -10 -15 -5
0 -10 -7 -10 -15 0 -8 -7 -15 -15 -15 -8 0 -15 -6 -15 -14 0 -8 -6 -21 -13
-28 -7 -7 -16 -21 -20 -31 -4 -10 -11 -15 -17 -12 -5 3 -10 -3 -10 -14 0 -12
-6 -21 -14 -21 -8 0 -23 -18 -33 -40 -10 -22 -24 -40 -30 -40 -7 0 -13 -7 -13
-15 0 -8 -7 -15 -15 -15 -9 0 -15 -9 -15 -25 0 -16 -6 -25 -15 -25 -8 0 -15
-9 -15 -20 0 -11 -4 -20 -10 -20 -5 0 -10 -7 -10 -15 0 -8 -5 -15 -10 -15 -6
0 -15 -11 -20 -25 -5 -14 -14 -25 -20 -25 -5 0 -10 -7 -10 -15 0 -8 -6 -15
-14 -15 -8 0 -17 -11 -20 -25 -4 -14 -11 -25 -16 -25 -6 0 -10 -9 -10 -20 0
-11 -7 -20 -15 -20 -8 0 -15 -9 -15 -20 0 -21 -33 -60 -50 -60 -5 0 -10 -13
-10 -30 0 -20 -5 -30 -15 -30 -8 0 -15 -6 -15 -14 0 -8 -4 -16 -10 -18 -5 -2
-11 -14 -14 -28 -2 -14 -9 -24 -15 -22 -6 1 -11 -7 -11 -18 0 -11 -7 -20 -15
-20 -9 0 -15 -9 -15 -25 0 -15 -6 -25 -14 -25 -8 0 -17 -13 -21 -30 -4 -16
-11 -30 -16 -30 -5 0 -9 -7 -9 -15 0 -8 -7 -15 -15 -15 -10 0 -15 -10 -15 -30
0 -20 -5 -30 -15 -30 -9 0 -15 -9 -15 -25 0 -16 -6 -25 -15 -25 -8 0 -15 -6
-15 -14 0 -8 -7 -16 -15 -20 -8 -3 -15 -17 -15 -31 0 -14 -4 -25 -9 -25 -5 0
-11 -12 -13 -27 -2 -16 -8 -27 -15 -25 -7 1 -13 -7 -13 -17 0 -11 -7 -26 -15
-35 -8 -8 -15 -22 -15 -30 0 -9 -5 -16 -10 -16 -6 0 -13 -8 -17 -17 -17 -51
-39 -93 -50 -93 -8 0 -13 -13 -13 -30 0 -20 -5 -30 -15 -30 -10 0 -15 -10 -15
-30 0 -20 -5 -30 -15 -30 -9 0 -15 -9 -15 -25 0 -16 -6 -25 -15 -25 -10 0 -15
-10 -15 -30 0 -16 -4 -30 -10 -30 -5 0 -10 -11 -10 -25 0 -14 -7 -28 -15 -31
-8 -4 -15 -17 -15 -30 0 -12 -6 -27 -14 -31 -8 -4 -16 -19 -18 -33 -2 -14 -9
-24 -16 -22 -6 1 -11 -1 -10 -5 4 -17 -14 -83 -22 -83 -6 0 -10 -11 -10 -24 0
-13 -7 -26 -15 -30 -9 -3 -15 -18 -15 -36 0 -20 -5 -30 -15 -30 -9 0 -15 -9
-15 -25 0 -14 -4 -25 -10 -25 -5 0 -13 -18 -16 -40 -4 -22 -10 -40 -15 -40 -5
0 -9 -14 -9 -30 0 -17 -6 -33 -14 -36 -7 -3 -16 -23 -20 -45 -3 -21 -11 -39
-16 -39 -6 0 -10 -13 -10 -30 0 -20 -5 -30 -15 -30 -9 0 -15 -9 -15 -22 0 -36
-11 -68 -21 -62 -5 3 -9 -8 -9 -24 0 -17 -6 -32 -15 -36 -9 -3 -15 -19 -15
-41 0 -20 -7 -43 -15 -51 -8 -9 -15 -31 -15 -50 0 -24 -5 -34 -15 -34 -11 0
-15 -11 -15 -40 0 -29 -4 -40 -15 -40 -11 0 -15 -12 -15 -44 0 -24 -4 -46 -9
-48 -5 -2 -11 -21 -14 -43 -2 -23 -9 -39 -15 -37 -8 1 -12 -14 -12 -43 0 -33
-4 -45 -15 -45 -11 0 -15 -11 -15 -37 0 -49 -10 -84 -21 -77 -5 3 -9 -15 -9
-40 0 -32 -4 -46 -14 -46 -9 0 -15 -18 -18 -57 -3 -31 -10 -59 -16 -61 -7 -2
-12 -26 -12 -58 0 -41 -4 -54 -15 -54 -12 0 -15 -13 -15 -60 0 -47 -3 -60 -15
-60 -11 0 -15 -13 -15 -52 -1 -31 -7 -61 -15 -72 -9 -12 -15 -42 -15 -78 0
-32 -4 -58 -9 -58 -5 0 -11 -30 -13 -66 -2 -36 -9 -68 -15 -72 -5 -4 -13 -43
-16 -87 -3 -44 -11 -81 -16 -83 -6 -2 -11 -30 -11 -62 0 -67 -9 -122 -20 -115
-4 2 -10 -46 -12 -107 -4 -69 -10 -114 -17 -116 -7 -2 -11 -43 -11 -119 0 -88
-3 -118 -15 -129 -12 -13 -15 -48 -15 -189 0 -130 -3 -174 -12 -177 -10 -4
-14 -122 -16 -535 -2 -465 -1 -533 13 -546 12 -13 15 -47 15 -186 0 -137 3
-172 15 -185 12 -11 15 -40 15 -126 0 -61 4 -119 9 -129 14 -25 19 -65 20
-149 1 -46 5 -71 11 -67 5 3 11 -3 11 -14 1 -12 3 -25 4 -31 1 -5 3 -45 4 -87
2 -49 5 -71 10 -58 6 15 9 11 14 -20 4 -22 7 -61 7 -87 0 -27 5 -48 12 -50 7
-3 14 -32 16 -76 2 -40 8 -69 13 -66 5 3 9 -24 9 -60 0 -44 5 -69 15 -80 9 -9
15 -34 15 -66 0 -36 4 -52 15 -56 11 -5 15 -21 15 -60 0 -41 4 -54 15 -54 11
0 15 -13 15 -52 1 -31 7 -61 15 -72 8 -11 15 -39 15 -62 0 -23 5 -44 10 -46 6
-2 13 -21 17 -43 3 -22 10 -43 16 -46 5 -4 12 -28 15 -55 2 -27 9 -52 14 -55
5 -3 12 -23 15 -45 4 -21 12 -45 20 -52 7 -7 13 -29 13 -48 0 -21 4 -33 10
-29 6 4 10 -12 10 -39 0 -34 4 -46 15 -46 11 0 15 -11 15 -39 0 -25 5 -41 15
-45 10 -3 15 -19 15 -46 0 -29 4 -40 15 -40 11 0 15 -12 15 -45 0 -33 4 -45
15 -45 10 0 15 -10 15 -29 0 -16 5 -31 11 -33 5 -2 13 -22 16 -46 3 -23 9 -39
13 -37 9 5 19 -28 21 -65 0 -22 1 -23 8 -6 7 18 8 18 14 -5 4 -13 7 -34 7 -47
0 -13 4 -21 9 -18 10 6 21 -26 21 -61 0 -13 5 -23 10 -23 6 0 10 -13 10 -30 0
-20 5 -30 15 -30 10 0 15 -10 15 -30 0 -20 5 -30 15 -30 10 0 15 -10 15 -30 0
-20 5 -30 15 -30 11 0 15 -11 15 -35 0 -22 6 -38 15 -41 9 -4 15 -19 15 -35 0
-19 5 -29 15 -29 9 0 15 -9 15 -24 0 -13 7 -26 15 -30 8 -3 15 -16 15 -30 0
-13 5 -26 12 -28 6 -2 13 -15 15 -29 2 -13 8 -25 13 -27 6 -2 10 -17 10 -33 0
-19 5 -29 15 -29 10 0 15 -10 15 -30 0 -20 5 -30 15 -30 9 0 15 -9 15 -25 0
-16 6 -25 15 -25 10 0 15 -10 15 -30 0 -20 5 -30 15 -30 10 0 15 -10 15 -30 0
-20 5 -30 15 -30 10 0 15 -10 15 -30 0 -20 5 -30 15 -30 9 0 15 -9 15 -25 0
-16 6 -25 15 -25 8 0 15 -9 15 -20 0 -11 4 -20 10 -20 5 0 12 -11 16 -25 3
-14 10 -25 15 -25 5 0 9 -13 9 -30 0 -20 5 -30 15 -30 13 0 20 -18 16 -42 0
-5 6 -8 14 -8 8 0 15 -7 15 -15 0 -9 7 -18 15 -21 8 -4 15 -17 15 -30 0 -13 6
-24 13 -24 7 0 21 -20 32 -45 11 -25 23 -45 28 -45 4 0 7 -7 7 -15 0 -8 9 -23
20 -32 11 -10 20 -23 20 -30 0 -7 4 -13 10 -13 5 0 12 -11 16 -25 3 -14 10
-25 14 -25 4 0 11 -11 14 -25 4 -14 11 -25 16 -25 6 0 10 -9 10 -20 0 -11 7
-20 15 -20 13 0 20 -18 16 -42 0 -5 6 -8 14 -8 8 0 15 -6 15 -14 0 -8 7 -16
15 -20 8 -3 15 -17 15 -31 0 -16 6 -25 15 -25 8 0 15 -7 15 -15 0 -8 7 -15 15
-15 8 0 15 -9 15 -21 0 -11 4 -18 9 -15 5 4 12 -7 16 -24 4 -16 13 -30 21 -30
8 0 14 -7 14 -16 0 -8 5 -12 10 -9 9 5 15 -23 11 -47 0 -5 6 -8 14 -8 8 0 15
-7 15 -15 0 -8 7 -15 15 -15 8 0 15 -7 15 -15 0 -8 7 -15 15 -15 10 0 15 -10
15 -30 0 -20 5 -30 15 -30 8 0 15 -7 15 -15 0 -8 7 -15 15 -15 8 0 15 -7 15
-15 0 -8 4 -15 9 -15 5 0 13 -9 16 -21 4 -11 25 -38 46 -59 21 -21 39 -43 39
-49 0 -6 7 -11 15 -11 10 0 15 -10 15 -30 0 -20 5 -30 15 -30 8 0 15 -7 15
-15 0 -8 4 -15 10 -15 15 0 50 -33 50 -47 0 -7 4 -13 10 -13 5 0 12 -11 16
-25 3 -14 12 -25 20 -25 8 0 14 -7 14 -15 0 -8 7 -15 15 -15 8 0 15 -7 15 -15
0 -8 5 -15 10 -15 6 0 10 -7 10 -15 0 -8 7 -15 15 -15 8 0 15 -7 15 -15 0 -8
7 -15 15 -15 8 0 15 -7 15 -15 0 -8 7 -15 15 -15 8 0 15 -7 15 -15 0 -8 8 -15
18 -16 14 0 14 -2 -3 -9 -17 -7 -17 -9 -2 -9 9 -1 17 -8 17 -16 0 -8 7 -15 15
-15 8 0 15 -7 15 -15 0 -8 7 -15 15 -15 8 0 15 -7 15 -15 0 -8 7 -15 15 -15 8
0 15 -7 15 -15 0 -8 7 -15 15 -15 8 0 15 -5 15 -11 0 -14 25 -39 39 -39 6 0
11 -7 11 -15 0 -8 7 -15 15 -15 8 0 15 -7 15 -15 0 -8 7 -15 15 -15 8 0 15 -5
15 -10 0 -6 11 -21 25 -34 14 -13 25 -28 25 -35 0 -6 7 -11 15 -11 8 0 15 -7
15 -15 0 -8 7 -15 15 -15 8 0 15 -7 15 -15 0 -8 5 -15 10 -15 13 0 50 -37 50
-50 0 -5 7 -10 15 -10 8 0 15 -7 15 -15 0 -8 7 -15 15 -15 8 0 15 -4 15 -10 0
-5 7 -10 15 -10 8 0 15 -7 15 -15 0 -8 7 -15 15 -15 8 0 15 -7 15 -15 0 -8 7
-15 15 -15 8 0 15 -7 15 -15 0 -8 7 -15 15 -15 8 0 15 -7 15 -15 0 -8 5 -15
11 -15 14 0 69 -55 69 -69 0 -6 7 -11 15 -11 8 0 15 -7 15 -15 0 -8 7 -15 15
-15 8 0 15 -7 15 -15 0 -9 9 -15 25 -15 16 0 25 -6 25 -15 0 -8 7 -15 15 -15
8 0 15 -7 15 -15 0 -8 7 -15 15 -15 8 0 15 -7 15 -15 0 -8 7 -15 16 -15 18 0
44 -23 44 -39 0 -6 7 -11 15 -11 8 0 15 -6 15 -14 0 -7 9 -16 21 -19 12 -3 18
-10 15 -16 -3 -5 7 -12 24 -16 16 -4 30 -11 30 -16 0 -5 7 -9 15 -9 8 0 15 -7
15 -15 0 -8 7 -15 15 -15 8 0 15 -7 15 -15 0 -8 7 -15 15 -15 8 0 15 -7 15
-15 0 -9 9 -15 21 -15 12 0 32 -11 45 -25 13 -14 28 -25 34 -25 5 0 10 -7 10
-15 0 -8 7 -15 15 -15 8 0 15 -6 15 -14 0 -8 11 -17 25 -20 14 -4 25 -11 25
-16 0 -6 9 -10 20 -10 11 0 20 -7 20 -15 0 -8 7 -15 15 -15 8 0 15 -7 15 -15
0 -9 9 -15 25 -15 16 0 25 -6 25 -15 0 -8 7 -15 15 -15 8 0 15 -7 15 -15 0 -8
7 -15 15 -15 8 0 15 -4 15 -9 0 -5 14 -12 30 -16 17 -4 28 -11 24 -16 -3 -5 2
-9 11 -9 8 0 18 -6 21 -14 3 -8 16 -17 30 -20 13 -4 24 -11 24 -16 0 -6 7 -10
15 -10 9 0 18 -7 21 -15 4 -8 12 -15 20 -15 8 0 14 -4 14 -10 0 -5 11 -12 25
-16 14 -3 25 -12 25 -20 0 -8 9 -14 20 -14 11 0 23 -7 26 -15 4 -8 15 -15 25
-15 10 0 19 -4 19 -10 0 -5 7 -10 15 -10 8 0 15 -7 15 -15 0 -9 9 -15 25 -15
15 0 25 -6 25 -14 0 -8 14 -17 30 -21 17 -4 28 -11 24 -16 -3 -5 4 -9 15 -9
12 0 21 -7 21 -15 0 -9 9 -15 24 -15 13 0 26 -7 30 -15 3 -8 12 -15 21 -15 8
0 15 -8 16 -17 0 -15 2 -15 9 2 7 17 9 17 9 3 1 -11 9 -18 21 -18 11 0 20 -7
20 -15 0 -9 9 -15 25 -15 14 0 25 -4 25 -9 0 -5 15 -13 32 -17 29 -6 30 -8 13
-15 -16 -6 -14 -8 13 -8 21 -1 32 -6 32 -16 0 -8 7 -16 15 -16 35 -3 40 -5 38
-17 -2 -7 6 -12 16 -12 11 0 26 -7 35 -15 8 -8 22 -15 30 -15 9 0 16 -4 16
-10 0 -5 11 -12 25 -16 14 -3 25 -12 25 -20 0 -9 11 -14 30 -14 20 0 30 -5 30
-15 0 -10 10 -15 29 -15 16 0 31 -4 33 -10 2 -5 14 -11 27 -13 14 -2 27 -9 29
-15 2 -7 12 -12 23 -12 11 0 22 -7 25 -15 4 -8 17 -15 30 -15 12 0 27 -7 31
-15 5 -8 19 -16 33 -18 13 -2 26 -9 28 -15 2 -7 17 -12 33 -12 19 0 29 -5 29
-15 0 -9 9 -15 25 -15 16 0 25 -6 25 -15 0 -10 10 -15 30 -15 20 0 30 -5 30
-15 0 -10 10 -15 30 -15 17 0 30 -4 30 -10 0 -5 13 -10 29 -10 16 0 36 -7 44
-15 8 -7 26 -17 41 -21 14 -3 26 -10 26 -15 0 -5 14 -9 30 -9 20 0 30 -5 30
-15 0 -9 9 -15 25 -15 14 0 28 -7 32 -16 5 -13 7 -13 14 -2 7 10 9 10 9 1 0
-8 14 -13 35 -13 24 0 35 -5 35 -15 0 -9 10 -15 26 -15 14 0 32 -7 40 -15 9
-8 29 -15 45 -15 19 0 29 -5 29 -15 0 -11 11 -15 40 -15 22 0 40 -4 40 -10 0
-5 14 -10 30 -10 19 0 30 -5 30 -14 0 -8 16 -16 42 -19 24 -3 44 -11 46 -16 2
-6 13 -11 25 -11 35 0 67 -11 61 -21 -3 -5 11 -9 30 -9 19 0 41 -7 50 -15 8
-8 32 -15 55 -15 30 0 41 -4 41 -15 0 -11 11 -15 39 -15 25 0 41 -5 45 -15 3
-10 19 -15 46 -15 29 0 40 -4 40 -15 0 -12 13 -15 55 -15 30 0 55 -4 55 -10 0
-5 12 -10 28 -10 37 0 73 -11 67 -20 -3 -4 20 -10 51 -12 31 -3 59 -9 62 -15
4 -6 29 -13 56 -15 27 -3 51 -10 55 -16 3 -5 31 -12 61 -14 30 -3 56 -11 58
-17 2 -6 28 -11 63 -11 46 0 59 -3 59 -15 0 -12 14 -15 70 -15 56 0 70 -3 70
-15 0 -12 14 -15 69 -15 52 0 70 -4 75 -15 4 -11 22 -15 76 -15 43 0 70 -4 70
-11 0 -5 5 -7 10 -4 6 3 10 1 10 -4 0 -7 31 -11 81 -11 51 0 78 -4 74 -10 -4
-6 22 -10 69 -11 42 -1 81 -3 86 -4 6 -1 25 -3 43 -4 24 -1 28 -4 17 -11 -10
-7 15 -10 81 -10 120 0 202 -10 174 -21 -11 -4 33 -8 100 -8 66 -1 158 -4 205
-8 78 -7 81 -8 40 -14 -25 -3 243 -6 595 -6 352 0 620 3 595 6 -41 6 -38 7 40
14 47 4 139 7 205 8 76 0 113 4 100 9 -17 7 -14 9 15 11 19 2 44 4 55 5 11 1
61 3 110 3 62 1 85 4 75 11 -11 7 -7 10 18 11 17 1 37 3 42 4 6 1 44 3 86 4
47 1 73 5 69 11 -4 6 23 10 74 10 70 0 81 2 81 18 0 14 2 15 10 2 6 -10 10
-11 10 -2 0 8 21 12 70 12 54 0 72 4 76 15 5 11 23 15 75 15 55 0 69 3 69 15
0 12 14 15 70 15 56 0 70 3 70 15 0 12 13 15 59 15 35 0 61 5 63 11 2 6 28 14
58 17 30 2 58 9 61 14 4 6 28 13 55 16 27 2 52 9 56 15 3 6 31 12 62 15 31 2
54 8 51 12 -6 9 30 20 68 20 15 0 27 5 27 10 0 6 25 10 55 10 42 0 55 3 55 15
0 11 11 15 40 15 27 0 43 5 46 15 4 10 20 15 45 15 28 0 39 4 39 15 0 11 12
15 44 15 24 0 46 5 48 11 2 5 22 13 46 16 23 3 39 9 37 13 -5 9 29 20 62 20
12 0 23 5 25 11 2 5 22 13 46 16 26 3 42 11 42 19 0 9 11 14 30 14 17 0 30 5
30 10 0 6 18 10 40 10 29 0 40 4 40 15 0 10 10 15 29 15 16 0 36 7 45 15 8 8
26 15 40 15 16 0 26 6 26 15 0 10 11 15 35 15 21 0 35 5 35 13 0 9 2 9 9 -1 7
-11 9 -11 14 2 4 9 18 16 32 16 16 0 25 6 25 15 0 10 10 15 30 15 17 0 30 4
30 9 0 5 12 12 26 15 15 4 33 14 41 21 8 8 28 15 44 15 16 0 29 5 29 10 0 6
14 10 30 10 20 0 30 5 30 15 0 10 10 15 30 15 20 0 30 5 30 15 0 9 9 15 25 15
16 0 25 6 25 15 0 10 10 15 29 15 16 0 31 5 33 12 2 6 15 13 28 15 14 2 28 10
33 18 4 8 19 15 31 15 13 0 26 7 30 15 3 8 17 15 31 15 14 0 25 4 25 10 0 5
11 12 25 16 14 3 25 10 25 15 0 5 14 9 30 9 20 0 30 5 30 15 0 10 10 15 30 15
19 0 30 5 30 14 0 8 11 17 25 20 14 4 25 11 25 16 0 6 7 10 16 10 8 0 22 7 30
15 9 8 24 15 35 15 10 0 18 5 16 11 -1 6 9 13 23 15 13 3 28 11 33 19 4 8 20
15 35 16 24 0 25 1 7 8 -17 7 -16 9 13 15 17 4 32 12 32 17 0 5 11 9 25 9 16
0 25 6 25 15 0 8 9 15 20 15 12 0 20 7 21 18 0 14 2 14 9 -3 7 -17 9 -17 9 -2
1 9 8 17 16 17 8 0 15 7 15 15 0 10 10 15 30 15 20 0 30 5 30 15 0 8 9 15 21
15 11 0 18 4 15 9 -4 5 7 12 24 16 16 4 30 13 30 21 0 8 10 14 25 14 16 0 25
6 25 15 0 8 7 15 15 15 8 0 15 5 15 10 0 6 9 10 19 10 10 0 21 7 25 15 3 8 15
15 26 15 11 0 20 6 20 14 0 8 11 17 25 20 14 4 25 11 25 16 0 6 9 10 20 10 11
0 20 7 20 15 0 8 7 15 15 15 8 0 15 4 15 10 0 5 11 12 24 16 14 3 27 12 30 20
3 8 12 14 21 14 8 0 14 6 12 13 -1 7 10 13 26 15 15 2 27 8 27 13 0 5 7 9 15
9 8 0 15 7 15 15 0 8 7 15 15 15 8 0 15 7 15 15 0 9 9 15 25 15 16 0 25 6 25
15 0 8 7 15 15 15 8 0 15 7 15 15 0 8 9 15 20 15 11 0 20 4 20 10 0 5 11 12
25 16 14 3 22 10 19 16 -3 5 3 12 15 15 12 3 21 12 21 19 0 8 5 14 10 14 6 0
21 11 34 25 13 14 33 25 45 25 12 0 21 6 21 15 0 8 7 15 15 15 8 0 15 7 15 15
0 8 7 15 15 15 8 0 15 7 15 15 0 8 9 15 20 15 11 0 20 4 20 10 0 5 11 12 25
16 14 3 22 10 19 16 -3 5 3 12 15 15 12 3 21 12 21 19 0 8 7 14 15 14 8 0 15
5 15 11 0 14 25 39 39 39 6 0 11 7 11 15 0 8 9 15 20 15 11 0 20 7 20 15 0 8
7 15 15 15 8 0 15 8 16 18 0 14 2 14 9 -3 7 -17 9 -17 9 -2 1 9 8 17 16 17 8
0 15 7 15 15 0 8 7 15 15 15 8 0 15 7 15 15 0 8 7 15 15 15 8 0 15 7 15 15 0
8 7 15 15 15 8 0 15 5 15 11 0 14 25 39 39 39 6 0 11 7 11 15 0 8 7 15 15 15
8 0 15 7 15 15 0 8 7 15 15 15 8 0 15 7 15 15 0 8 7 15 15 15 8 0 15 7 15 15
0 8 7 15 15 15 8 0 15 5 15 10 0 6 7 10 15 10 8 0 15 7 15 15 0 8 7 15 15 15
8 0 15 7 15 15 0 8 7 15 15 15 8 0 15 7 15 15 0 8 7 15 15 15 8 0 15 7 15 15
0 8 7 15 15 15 8 0 15 7 15 15 0 8 7 15 15 15 8 0 15 5 15 11 0 13 87 99 100
99 6 0 10 7 10 15 0 8 7 15 15 15 8 0 15 7 15 15 0 8 5 15 10 15 6 0 10 7 10
15 0 8 7 15 15 15 8 0 15 7 15 15 0 8 7 15 15 15 8 0 15 7 15 15 0 8 4 15 10
15 12 0 80 68 80 80 0 6 8 10 18 11 14 0 14 2 -3 9 -17 7 -17 9 -2 9 9 1 17 8
17 16 0 8 7 15 15 15 8 0 15 7 15 15 0 8 7 15 15 15 8 0 15 5 15 11 0 6 25 36
55 65 30 30 55 58 55 63 0 5 14 23 30 39 17 17 30 35 30 41 0 6 7 11 15 11 8
0 15 7 15 15 0 8 7 15 15 15 8 0 15 7 15 15 0 8 7 15 15 15 8 0 15 7 15 15 0
8 7 15 15 15 8 0 15 5 15 10 0 6 6 10 14 10 8 0 41 27 74 60 33 33 65 60 71
60 6 0 11 7 11 15 0 8 7 15 15 15 8 0 15 7 15 15 0 8 7 15 15 15 8 0 15 7 15
15 0 8 4 15 10 15 5 0 12 11 16 24 3 14 12 27 20 30 8 3 14 12 14 21 0 8 5 14
12 12 7 -1 12 3 13 9 0 6 8 18 18 28 9 10 17 24 17 32 0 8 5 14 10 14 6 0 10
6 10 14 0 8 7 16 15 20 8 3 15 17 15 31 0 16 6 25 15 25 9 0 15 9 15 25 0 16
6 25 15 25 10 0 15 10 15 30 0 20 5 30 15 30 10 0 15 10 15 30 0 17 4 30 9 30
5 0 12 11 15 25 4 14 11 25 16 25 5 0 12 16 16 35 3 19 10 35 15 35 5 0 12 18
15 40 4 22 10 40 14 40 5 0 11 13 15 30 4 16 11 30 16 30 5 0 9 18 9 40 0 29
4 40 15 40 8 0 15 9 15 20 0 11 7 20 15 20 9 0 15 9 15 25 0 16 6 25 15 25 10
0 15 10 15 30 0 17 4 30 9 30 5 0 12 11 15 25 4 14 11 25 16 25 6 0 10 7 10
15 0 9 7 18 15 21 8 4 15 17 15 30 0 15 6 24 15 24 10 0 15 10 15 30 0 20 5
30 15 30 13 0 20 18 16 43 -1 4 6 10 14 13 9 4 15 19 15 35 0 19 5 29 15 29 9
0 15 9 15 25 0 16 6 25 15 25 10 0 15 10 15 30 0 20 5 30 15 30 10 0 15 10 15
29 0 16 4 31 10 33 5 2 11 13 13 26 2 13 9 27 15 31 6 4 13 18 15 31 2 13 9
26 15 28 7 2 12 15 12 28 0 15 6 24 15 24 10 0 15 10 15 30 0 20 5 30 15 30
10 0 15 10 15 29 0 16 7 36 15 45 8 8 15 26 15 40 0 16 6 26 15 26 10 0 15 10
15 30 0 20 5 30 15 30 10 0 15 10 15 30 0 22 5 30 18 31 14 0 14 2 -3 9 -17 7
-17 9 -2 9 13 1 17 10 17 37 0 21 4 33 10 29 6 -3 10 4 10 17 0 13 3 34 7 47
6 23 7 23 14 5 7 -17 8 -16 8 6 2 37 12 70 21 65 4 -2 10 14 13 37 3 24 11 44
16 46 6 2 11 16 11 32 0 16 7 30 15 34 10 3 15 19 15 46 0 29 4 40 15 40 11 0
15 11 15 40 0 27 5 43 15 46 10 4 15 20 15 45 0 28 4 39 15 39 11 0 15 11 15
40 0 27 5 43 15 46 10 4 15 20 15 45 0 21 4 39 9 39 4 0 11 19 14 41 3 23 10
45 15 48 5 3 12 28 14 55 3 27 10 51 15 55 6 3 13 24 16 46 4 22 11 41 17 43
5 2 10 23 10 47 0 25 6 50 15 59 10 9 15 34 15 70 0 43 3 56 15 56 11 0 15 13
15 54 0 39 4 55 15 60 11 4 15 21 15 60 0 39 4 55 15 60 11 4 15 22 15 71 0
36 4 65 9 65 5 0 11 32 13 72 2 44 9 73 16 76 7 2 12 23 12 50 0 26 3 65 7 87
5 31 8 35 14 20 5 -13 8 4 8 45 2 87 11 145 22 128 5 -8 9 23 10 75 1 48 3 92
4 97 1 6 3 20 4 33 2 21 3 21 10 2 5 -12 10 39 13 123 3 87 10 148 17 155 7 7
11 69 11 185 0 142 3 176 15 189 14 13 15 81 13 546 -2 413 -6 531 -15 535
-10 3 -13 47 -13 178 0 96 -4 174 -8 174 -10 0 -10 -6 -18 160 -4 74 -10 126
-14 115 -9 -26 -20 55 -20 147 0 38 -4 67 -9 64 -12 -8 -21 43 -21 114 0 37
-4 60 -12 62 -8 3 -14 33 -16 84 -3 43 -9 82 -15 86 -6 4 -13 36 -15 72 -2 36
-8 66 -13 66 -5 0 -9 26 -9 58 0 34 -6 66 -14 78 -8 11 -16 45 -18 75 -2 37
-7 53 -15 51 -9 -1 -13 15 -13 58 0 47 -3 60 -15 60 -11 0 -15 13 -15 54 0 32
-5 56 -12 58 -6 2 -13 30 -16 61 -3 39 -9 57 -18 57 -10 0 -14 14 -14 46 0 25
-4 43 -9 40 -11 -7 -21 28 -21 77 0 26 -4 37 -15 37 -11 0 -15 12 -15 46 0 27
-4 43 -10 39 -6 -4 -10 12 -10 39 0 34 -4 46 -15 46 -11 0 -15 12 -15 45 0 33
-4 45 -15 45 -11 0 -15 11 -15 40 0 29 -4 40 -15 40 -11 0 -15 11 -15 40 0 27
-5 43 -15 46 -8 4 -15 18 -15 33 0 14 -7 35 -15 45 -8 11 -15 33 -15 49 0 15
-4 26 -9 23 -10 -6 -21 26 -21 62 0 13 -6 22 -15 22 -10 0 -15 10 -15 30 0 17
-4 30 -10 30 -5 0 -13 18 -16 40 -4 22 -10 40 -15 40 -5 0 -9 16 -9 35 0 24
-5 35 -15 35 -11 0 -15 11 -15 35 0 22 -6 38 -15 41 -8 4 -15 17 -15 30 0 15
-6 24 -15 24 -9 0 -15 9 -15 24 0 24 -27 85 -43 97 -5 3 -11 25 -14 47 -3 23
-10 40 -17 39 -6 -1 -12 9 -14 23 -2 14 -10 29 -18 33 -8 4 -14 19 -14 31 0
13 -7 26 -15 30 -8 3 -15 17 -15 31 0 14 -4 25 -10 25 -5 0 -10 14 -10 30 0
20 -5 30 -15 30 -9 0 -15 9 -15 25 0 16 -6 25 -15 25 -10 0 -15 10 -15 30 0
20 -5 30 -15 30 -10 0 -15 10 -15 30 0 20 -5 30 -15 30 -10 0 -15 10 -15 30 0
18 -5 29 -12 28 -7 -2 -14 7 -16 20 -2 13 -10 26 -18 29 -8 3 -14 12 -14 20 0
8 -7 21 -15 29 -8 9 -15 24 -15 35 0 10 -6 18 -12 17 -8 -2 -14 9 -16 25 -2
15 -8 27 -13 27 -5 0 -9 11 -9 25 0 14 -7 28 -15 31 -8 4 -15 12 -15 20 0 8
-7 14 -15 14 -9 0 -15 9 -15 25 0 16 -6 25 -15 25 -10 0 -15 10 -15 30 0 20
-5 30 -15 30 -8 0 -15 7 -15 15 0 8 -4 15 -9 15 -5 0 -12 14 -16 30 -4 17 -13
30 -21 30 -8 0 -14 10 -14 25 0 16 -6 25 -15 25 -8 0 -15 9 -15 20 0 11 -4 20
-10 20 -5 0 -10 11 -10 25 0 16 -6 25 -15 25 -8 0 -15 7 -15 15 0 8 -7 15 -15
15 -10 0 -15 10 -15 30 0 20 -5 30 -15 30 -8 0 -15 7 -15 15 0 8 -7 15 -15 15
-9 0 -15 9 -15 25 0 16 -6 25 -15 25 -8 0 -15 9 -15 20 0 11 -4 20 -10 20 -5
0 -12 11 -16 25 -3 14 -12 25 -20 25 -8 0 -14 7 -14 15 0 8 -4 15 -8 15 -5 0
-17 18 -28 40 -10 22 -25 40 -31 40 -7 0 -13 9 -13 20 0 11 -7 20 -15 20 -9 0
-15 9 -15 25 0 16 -6 25 -15 25 -8 0 -15 7 -15 15 0 8 -6 15 -12 15 -7 0 -21
18 -31 40 -10 22 -25 40 -33 40 -8 0 -14 9 -14 21 0 11 -5 17 -10 14 -6 -3
-13 2 -17 12 -4 10 -13 24 -20 31 -7 7 -13 20 -13 28 0 8 -4 14 -10 14 -5 0
-10 7 -10 15 0 8 -7 15 -15 15 -8 0 -15 7 -15 15 0 8 -7 15 -15 15 -13 0 -20
19 -16 43 1 5 -3 5 -9 2 -7 -4 -14 2 -17 14 -3 12 -12 21 -19 21 -8 0 -14 7
-14 15 0 8 -7 15 -15 15 -8 0 -15 9 -15 21 0 11 -4 18 -8 15 -10 -6 -35 21
-45 48 -4 9 -11 15 -16 12 -5 -4 -12 7 -16 24 -4 16 -11 30 -16 30 -5 0 -9 7
-9 15 0 8 -7 15 -15 15 -8 0 -15 5 -15 10 0 6 -7 10 -15 10 -8 0 -15 7 -15 15
0 8 -7 15 -15 15 -8 0 -15 7 -15 15 0 7 -8 19 -17 24 -10 6 -14 11 -9 11 13 0
-30 40 -43 40 -5 0 -12 14 -16 30 -4 17 -13 30 -21 30 -8 0 -14 7 -14 15 0 8
-5 15 -11 15 -14 0 -39 25 -39 39 0 6 -7 11 -15 11 -8 0 -15 7 -15 15 0 8 -7
15 -15 15 -8 0 -15 7 -15 15 0 8 -7 15 -15 15 -8 0 -15 7 -15 15 0 8 -7 15
-15 15 -8 0 -15 7 -15 15 0 8 -7 15 -15 15 -8 0 -15 7 -15 15 0 8 -7 15 -15
15 -8 0 -15 7 -15 15 0 8 -5 15 -11 15 -14 0 -39 25 -39 39 0 6 -7 11 -15 11
-8 0 -15 7 -15 15 0 8 -7 15 -15 15 -8 0 -15 7 -15 15 0 8 -7 15 -15 15 -8 0
-15 7 -15 15 0 8 -7 15 -15 15 -8 0 -15 7 -15 15 0 8 -7 15 -15 15 -8 0 -15 7
-15 15 0 8 -7 15 -15 15 -8 0 -15 7 -15 15 0 8 -7 15 -15 15 -8 0 -15 5 -15
10 0 6 -7 10 -15 10 -8 0 -15 7 -15 15 0 8 -4 15 -10 15 -5 0 -10 7 -10 15 0
8 -7 15 -15 15 -8 0 -15 7 -15 15 0 8 -7 15 -16 15 -8 0 -29 14 -46 30 -16 17
-36 30 -44 30 -9 0 -12 5 -9 11 4 6 -2 13 -14 16 -12 3 -21 12 -21 19 0 8 -7
14 -15 14 -8 0 -15 5 -15 10 0 6 -7 10 -15 10 -8 0 -15 7 -15 15 0 8 -4 15
-10 15 -5 0 -10 6 -10 14 0 8 -13 17 -30 21 -16 4 -30 13 -30 21 0 8 -7 14
-15 14 -8 0 -15 5 -15 10 0 6 -7 10 -15 10 -8 0 -15 7 -15 15 0 8 -7 15 -15
15 -8 0 -15 7 -15 15 0 8 -7 15 -15 15 -8 0 -15 7 -15 15 0 9 -9 15 -24 15
-13 0 -27 7 -30 16 -3 8 -10 12 -16 9 -5 -3 -10 1 -10 9 0 9 -7 16 -15 16 -8
0 -15 7 -15 15 0 8 -7 15 -15 15 -8 0 -15 7 -15 15 0 8 -8 15 -19 15 -10 0
-24 7 -31 15 -7 8 -19 15 -26 15 -8 0 -14 7 -14 15 0 8 -7 15 -15 15 -8 0 -15
7 -15 15 0 9 -9 15 -25 15 -16 0 -25 6 -25 15 0 8 -7 15 -15 15 -8 0 -15 5
-15 10 0 6 -7 10 -15 10 -8 0 -15 7 -15 15 0 8 -9 15 -19 15 -11 0 -26 7 -35
15 -8 8 -19 15 -25 15 -6 0 -11 6 -11 14 0 7 -9 16 -21 19 -12 3 -18 10 -14
17 3 6 3 10 -2 9 -23 -4 -53 2 -53 11 0 19 -35 50 -57 50 -14 0 -23 6 -23 15
0 8 -6 15 -14 15 -8 0 -16 7 -20 15 -3 8 -17 15 -31 15 -15 0 -24 4 -20 10 3
6 -3 10 -14 10 -12 0 -21 7 -21 15 0 9 -9 15 -23 15 -22 0 -64 37 -59 52 1 5
-1 7 -6 7 -27 -5 -52 3 -52 16 0 8 -9 15 -20 15 -11 0 -23 7 -26 15 -4 8 -15
15 -25 15 -10 0 -19 7 -19 15 0 10 -10 15 -30 15 -17 0 -30 5 -30 13 0 12 -44
37 -67 37 -7 0 -13 7 -13 15 0 10 -10 15 -30 15 -20 0 -30 5 -30 15 0 8 -7 15
-15 15 -8 0 -15 5 -15 11 0 5 -4 7 -10 4 -5 -3 -10 -1 -10 4 0 6 -9 11 -20 11
-11 0 -20 7 -20 15 0 8 -3 14 -7 14 -25 -4 -43 3 -43 16 0 10 -10 15 -30 15
-20 0 -30 5 -30 15 0 10 -10 15 -30 15 -20 0 -30 5 -30 15 0 9 -9 15 -25 15
-14 0 -25 5 -25 10 0 6 -9 10 -20 10 -11 0 -20 5 -20 11 0 5 -4 8 -9 5 -5 -4
-11 -3 -13 2 -1 4 -34 23 -73 42 -38 19 -76 41 -83 48 -7 6 -22 12 -33 12 -10
0 -19 7 -19 15 0 8 -3 14 -7 14 -26 -4 -53 3 -53 14 0 11 -19 17 -67 20 -7 0
-13 6 -13 14 0 8 -12 13 -30 13 -16 0 -30 5 -30 10 0 6 -11 10 -25 10 -14 0
-28 7 -31 15 -4 9 -19 15 -35 15 -18 0 -29 5 -29 14 0 8 -16 16 -40 20 -22 3
-40 11 -40 16 0 6 -8 10 -19 10 -10 0 -24 7 -31 15 -7 8 -25 15 -41 15 -17 0
-29 5 -29 13 0 7 -12 14 -27 15 -16 1 -30 7 -31 12 -2 6 -8 8 -13 4 -5 -3 -9
0 -9 5 0 6 -13 11 -30 11 -16 0 -30 4 -30 9 0 9 -57 27 -72 23 -5 -1 -8 3 -8
8 0 6 -16 10 -35 10 -24 0 -35 5 -35 15 0 11 -11 15 -40 15 -27 0 -40 4 -40
14 0 8 -16 16 -42 19 -24 3 -44 11 -46 16 -2 6 -16 11 -31 11 -15 0 -36 7 -47
15 -10 8 -36 15 -56 15 -27 0 -38 4 -38 15 0 11 -11 15 -36 15 -21 0 -42 6
-48 15 -6 8 -28 15 -48 17 -21 1 -39 7 -42 13 -2 6 -20 12 -40 13 -20 2 -48 7
-62 12 -14 6 -36 10 -50 10 -13 0 -24 5 -24 11 0 5 -4 8 -9 5 -5 -4 -11 -2
-13 3 -1 5 -21 11 -43 12 -22 2 -42 7 -46 11 -3 4 -29 12 -59 18 -30 6 -56 14
-59 18 -4 4 -23 9 -44 11 -21 1 -54 9 -72 17 -19 8 -52 14 -74 14 -22 0 -41 5
-43 11 -2 6 -28 14 -58 17 -30 3 -60 10 -66 17 -7 6 -38 13 -70 14 -32 1 -61
6 -64 11 -3 5 -44 14 -90 19 -149 18 -214 28 -240 38 -14 5 -50 11 -80 12 -67
2 -110 10 -110 20 0 4 -30 9 -67 10 -80 2 -154 11 -168 20 -5 4 -50 8 -100 10
-49 2 -94 6 -99 9 -12 7 -18 8 -211 17 -97 5 -163 12 -167 19 -5 8 -8 7 -8 -1
0 -9 -20 -13 -65 -13 -36 0 -65 4 -65 10 0 10 -264 16 -557 12z m409 -31 c2
-5 108 -13 236 -17 127 -4 232 -10 232 -14 0 -5 65 -11 145 -15 80 -4 143 -11
140 -15 -3 -4 41 -11 98 -15 56 -4 104 -11 107 -15 3 -4 48 -11 100 -15 52 -4
97 -11 98 -16 2 -5 42 -9 88 -9 66 0 86 -3 90 -15 5 -11 23 -15 75 -15 55 0
69 -3 69 -15 0 -12 14 -15 70 -15 56 0 70 -3 70 -15 0 -12 13 -15 56 -15 36 0
61 -5 70 -15 9 -8 31 -15 50 -15 19 0 34 -4 34 -9 0 -5 34 -12 75 -16 41 -4
72 -11 70 -16 -3 -4 22 -11 55 -15 33 -3 57 -10 55 -15 -3 -4 15 -11 40 -14
25 -4 45 -11 45 -16 0 -5 18 -9 39 -9 25 0 41 -5 45 -15 4 -10 20 -15 51 -15
33 0 45 -4 45 -15 0 -11 11 -15 40 -15 29 0 40 -4 40 -15 0 -11 11 -15 39 -15
22 0 41 -4 43 -9 2 -5 23 -12 48 -16 25 -4 47 -10 50 -15 3 -4 22 -11 42 -15
20 -4 39 -13 42 -21 3 -8 16 -14 30 -14 13 0 26 -4 28 -10 2 -5 21 -12 43 -16
22 -3 42 -10 43 -15 2 -5 21 -9 43 -9 28 0 39 -4 39 -15 0 -11 12 -15 45 -15
33 0 45 -4 45 -15 0 -11 11 -15 40 -15 29 0 40 -4 40 -15 0 -11 12 -15 45 -15
25 0 45 -4 45 -9 0 -5 12 -12 27 -16 15 -3 30 -11 33 -16 3 -4 16 -10 29 -12
12 -2 26 -8 29 -14 4 -5 24 -13 45 -17 20 -4 37 -11 37 -16 0 -6 7 -10 15 -10
8 0 15 -7 15 -15 0 -11 12 -15 45 -15 33 0 45 -4 45 -15 0 -9 9 -15 24 -15 13
0 26 -7 30 -15 3 -8 16 -15 30 -15 13 0 26 -7 30 -15 3 -8 17 -15 31 -15 14 0
25 -4 25 -10 0 -5 11 -10 25 -10 14 0 28 -6 31 -14 3 -8 19 -18 35 -21 16 -4
27 -10 24 -15 -3 -4 7 -11 21 -14 14 -4 36 -18 48 -31 14 -15 34 -25 50 -25
16 0 26 -5 26 -15 0 -10 10 -15 30 -15 20 0 30 -5 30 -15 0 -9 9 -15 25 -15
16 0 25 -6 25 -15 0 -8 9 -15 20 -15 11 0 20 -4 20 -9 0 -5 14 -12 30 -16 17
-4 28 -10 25 -15 -3 -5 8 -11 25 -15 16 -4 30 -13 30 -21 0 -8 8 -14 18 -14
13 0 14 -2 4 -9 -9 -5 0 -10 27 -15 23 -3 41 -11 41 -16 0 -6 11 -10 25 -10
16 0 25 -6 25 -15 0 -10 10 -15 30 -15 20 0 30 -5 30 -15 0 -8 7 -15 15 -15 8
0 15 -7 15 -15 0 -8 8 -15 18 -15 13 0 14 -2 3 -9 -9 -6 2 -11 37 -16 29 -4
53 -13 56 -21 3 -8 12 -14 21 -14 8 0 15 -4 15 -9 0 -5 10 -13 22 -16 11 -4
31 -18 43 -31 12 -13 27 -24 34 -24 6 0 11 -7 11 -15 0 -10 10 -15 30 -15 20
0 30 -5 30 -15 0 -8 7 -15 15 -15 8 0 15 -7 15 -15 0 -9 9 -15 25 -15 16 0 25
-6 25 -15 0 -8 7 -15 16 -15 8 0 29 -13 46 -30 16 -16 36 -30 44 -30 9 0 12
-5 9 -11 -4 -6 2 -13 14 -16 12 -3 21 -9 21 -13 0 -4 12 -11 26 -14 29 -8 54
-29 54 -45 0 -6 9 -11 20 -11 11 0 20 -7 20 -15 0 -9 9 -15 25 -15 16 0 25 -6
25 -15 0 -8 7 -15 15 -15 8 0 15 -7 15 -15 0 -8 7 -15 16 -15 8 0 12 -5 9 -11
-4 -6 2 -13 14 -16 12 -3 21 -9 21 -13 0 -5 14 -11 30 -15 17 -4 28 -10 26
-14 -3 -4 4 -15 15 -24 10 -9 19 -24 19 -32 0 -8 7 -15 15 -15 8 0 15 -7 15
-15 0 -9 9 -15 25 -15 16 0 25 -6 25 -15 0 -8 7 -15 15 -15 8 0 15 -7 15 -15
0 -10 10 -15 31 -15 19 0 28 -4 24 -11 -4 -6 2 -13 14 -16 12 -3 21 -12 21
-19 0 -8 7 -14 16 -14 8 0 12 -4 9 -10 -3 -5 0 -10 7 -10 15 0 48 -35 48 -50
0 -6 9 -10 20 -10 11 0 20 -7 20 -15 0 -8 7 -15 15 -15 8 0 15 -5 15 -11 0
-16 25 -37 54 -45 14 -3 26 -12 26 -20 0 -8 7 -14 15 -14 8 0 15 -5 15 -11 0
-14 55 -69 69 -69 6 0 11 -7 11 -15 0 -8 6 -15 14 -15 7 0 16 -9 19 -21 3 -12
10 -18 15 -15 6 3 13 -6 17 -21 5 -21 8 -24 16 -12 7 12 9 11 9 -3 0 -10 7
-18 15 -18 8 0 15 -7 15 -15 0 -8 7 -15 15 -15 8 0 14 -3 14 -7 -4 -25 3 -43
16 -43 10 0 15 -10 15 -30 0 -20 5 -30 15 -30 8 0 15 -7 15 -15 0 -8 7 -15 15
-15 8 0 15 -7 15 -15 0 -8 5 -15 11 -15 12 0 39 -25 39 -37 0 -11 37 -43 50
-43 6 0 10 -6 10 -14 0 -8 14 -17 30 -21 17 -4 30 -11 30 -16 0 -5 7 -9 15 -9
8 0 15 -7 15 -15 0 -8 4 -15 9 -15 5 0 11 -9 14 -21 3 -12 10 -18 15 -15 5 3
12 -4 15 -15 3 -12 10 -18 16 -14 6 3 11 -1 11 -10 0 -8 9 -23 20 -32 11 -10
20 -23 20 -30 0 -7 6 -13 13 -13 8 0 7 -3 -2 -9 -12 -8 -9 -11 12 -16 15 -4
27 -11 27 -16 0 -5 7 -9 15 -9 8 0 15 -7 15 -15 0 -8 7 -15 15 -15 8 0 15 -7
15 -15 0 -8 4 -15 9 -15 5 0 11 -9 14 -21 3 -12 10 -18 15 -15 6 3 13 -6 17
-21 3 -15 17 -37 31 -50 13 -12 24 -26 24 -32 0 -5 14 -23 30 -39 17 -17 30
-35 30 -41 0 -6 7 -11 15 -11 8 0 15 -7 15 -15 0 -8 7 -15 15 -15 10 0 15 -10
15 -30 0 -18 5 -30 13 -30 7 0 14 -12 15 -26 2 -25 51 -84 70 -84 5 0 12 -9
15 -21 3 -12 10 -18 15 -15 6 3 13 -6 17 -21 3 -15 17 -37 31 -50 13 -12 24
-31 24 -43 0 -11 7 -20 15 -20 8 0 15 -9 15 -20 0 -11 7 -20 15 -20 9 0 15 -9
15 -25 0 -16 6 -25 15 -25 8 0 15 -7 15 -15 0 -8 4 -15 9 -15 5 0 12 -14 16
-30 4 -17 11 -28 16 -24 5 3 9 -2 9 -11 0 -8 6 -18 14 -21 8 -3 18 -19 21 -35
4 -16 11 -27 16 -23 5 3 9 -2 9 -10 0 -9 7 -16 15 -16 8 0 15 -6 15 -14 0 -8
7 -16 15 -20 8 -3 15 -17 15 -31 0 -16 6 -25 15 -25 9 0 15 -9 15 -25 0 -14 7
-28 15 -31 8 -4 15 -12 15 -20 0 -8 7 -14 15 -14 8 0 14 -3 14 -7 -4 -25 3
-43 16 -43 10 0 15 -10 15 -27 0 -20 3 -24 9 -14 7 10 11 5 16 -18 3 -17 11
-31 16 -31 5 0 9 -7 9 -15 0 -8 7 -15 15 -15 13 0 20 -18 16 -43 -1 -4 6 -10
15 -14 13 -5 13 -7 2 -14 -10 -7 -10 -9 0 -9 6 0 12 -6 12 -14 0 -8 7 -16 15
-20 8 -3 15 -17 15 -31 0 -16 6 -25 15 -25 11 0 15 -11 15 -40 0 -29 4 -40 15
-40 11 0 15 -12 15 -45 0 -33 4 -45 15 -45 8 0 15 -7 15 -15 0 -8 4 -15 10
-15 5 0 13 -18 16 -41 5 -27 10 -36 15 -27 7 10 9 9 10 -4 1 -10 3 -22 4 -28
1 -5 3 -18 4 -27 1 -14 3 -15 10 -4 6 9 11 -3 16 -38 4 -29 9 -50 12 -47 9 8
43 -34 43 -53 0 -10 7 -21 15 -25 8 -3 15 -17 15 -31 0 -16 6 -25 15 -25 8 0
14 -3 14 -7 -4 -26 3 -53 14 -53 8 0 14 -15 15 -37 2 -21 8 -40 14 -44 6 -4
13 -31 16 -60 5 -48 7 -51 13 -24 l7 30 2 -32 c1 -18 4 -37 5 -43 1 -5 3 -18
4 -27 1 -15 3 -16 11 -3 7 11 11 3 16 -30 5 -33 9 -39 14 -25 6 17 8 16 14 -8
3 -16 4 -32 1 -38 -4 -5 -3 -19 0 -30 5 -15 9 -18 15 -9 4 7 10 -7 14 -34 4
-25 13 -46 19 -46 7 0 6 -4 -3 -10 -10 -6 -11 -10 -2 -10 7 0 12 -13 12 -30 0
-20 5 -30 15 -30 10 0 15 -10 15 -30 0 -20 5 -30 15 -30 8 0 15 -7 15 -15 0
-8 7 -15 15 -15 8 0 15 -4 15 -10 0 -5 -7 -10 -15 -10 -8 0 -15 -9 -15 -20 0
-11 6 -20 13 -20 8 0 14 -15 15 -37 2 -21 8 -40 13 -44 6 -3 13 -25 16 -48 3
-22 9 -41 14 -41 4 0 11 -33 15 -72 5 -49 9 -66 14 -53 6 16 9 13 15 -17 4
-21 11 -36 15 -33 4 2 11 -27 14 -67 4 -39 14 -77 22 -85 8 -8 14 -28 14 -44
0 -16 5 -29 10 -29 6 0 10 -20 10 -45 0 -33 4 -45 15 -45 15 0 22 -64 17 -142
-1 -19 3 -28 13 -28 12 0 15 -15 15 -74 0 -52 4 -79 14 -89 8 -8 16 -37 17
-66 2 -28 6 -51 11 -51 13 0 9 -38 -4 -44 -9 -3 -8 -8 5 -16 13 -8 17 -26 18
-68 1 -51 2 -53 9 -22 l7 35 2 -40 c2 -75 14 -145 22 -139 5 3 10 -28 10 -68
1 -40 5 -127 9 -193 l6 -120 4 105 3 105 8 -130 c3 -71 7 -180 8 -242 0 -61 5
-113 10 -115 5 -1 11 -47 13 -100 2 -70 7 -98 16 -98 6 0 12 -9 12 -20 0 -11
-7 -20 -15 -20 -9 0 -15 -9 -15 -25 0 -16 6 -25 15 -25 21 0 20 -56 -1 -64
-12 -5 -14 -17 -8 -68 4 -35 11 -64 15 -66 15 -6 10 -42 -6 -42 -8 0 -15 -4
-15 -10 0 -5 7 -10 15 -10 13 0 15 -21 15 -129 0 -89 -4 -131 -12 -133 -16 -6
-21 -200 -5 -210 9 -6 9 -8 0 -8 -10 0 -13 -31 -13 -120 0 -71 -4 -120 -10
-120 -5 0 -11 -60 -12 -147 -2 -112 -6 -147 -15 -146 -10 2 -13 -16 -13 -66 0
-85 -6 -101 -36 -101 -23 0 -24 -2 -24 -85 0 -67 -3 -87 -15 -91 -12 -5 -15
-25 -15 -89 0 -66 -3 -84 -16 -89 -8 -3 -14 -14 -13 -23 0 -10 1 -60 0 -110
-1 -76 -4 -93 -16 -93 -10 0 -15 -10 -15 -30 0 -20 -5 -30 -15 -30 -12 0 -15
-14 -15 -69 0 -38 -4 -71 -10 -73 -5 -1 -12 -36 -16 -75 -6 -68 -8 -73 -30
-73 -23 0 -24 -3 -24 -65 0 -49 -4 -67 -15 -71 -8 -4 -15 -12 -15 -20 0 -8 -6
-14 -14 -14 -10 0 -15 -19 -18 -67 -2 -39 -9 -68 -16 -71 -7 -2 -12 -10 -12
-18 0 -9 -11 -14 -30 -14 -31 0 -43 -19 -12 -21 16 -1 16 -2 0 -6 -12 -3 -18
-14 -18 -34 0 -19 -5 -29 -15 -29 -11 0 -15 -11 -15 -40 0 -36 -2 -40 -25 -40
-23 0 -25 -4 -25 -45 0 -33 -4 -45 -14 -45 -10 0 -16 -14 -18 -43 -3 -38 -6
-42 -30 -45 -22 -3 -28 -9 -28 -28 0 -15 -6 -24 -15 -24 -11 0 -15 -12 -15
-45 0 -33 -4 -45 -15 -45 -11 0 -15 -12 -15 -45 l0 -45 -40 0 -40 0 0 -40 c0
-29 -4 -40 -15 -40 -10 0 -15 -10 -15 -30 0 -16 -4 -30 -10 -30 -23 0 -50 -41
-50 -75 0 -22 -6 -38 -15 -41 -10 -4 -15 -20 -15 -45 0 -28 -4 -39 -15 -39 -8
0 -15 -7 -15 -15 0 -8 -7 -15 -15 -15 -11 0 -15 -12 -15 -45 0 -33 -4 -45 -15
-45 -9 0 -15 -9 -15 -25 0 -16 -6 -25 -15 -25 -10 0 -15 -10 -15 -30 0 -27 -3
-30 -30 -30 -20 0 -30 5 -30 15 0 8 -4 15 -10 15 -5 0 -10 -7 -10 -15 0 -8 -7
-15 -15 -15 -14 0 -19 -14 -18 -47 1 -7 -5 -13 -13 -13 -8 0 -14 -10 -14 -24
0 -28 -21 -36 -92 -36 -34 0 -48 -4 -48 -14 0 -7 -7 -19 -15 -26 -12 -10 -15
-10 -15 4 0 9 -7 16 -15 16 -8 0 -15 7 -15 15 0 8 -7 15 -15 15 -8 0 -15 7
-15 15 0 8 -7 15 -16 15 -8 0 -12 5 -9 11 4 6 -2 13 -14 16 -12 3 -21 9 -21
14 0 5 -7 9 -15 9 -8 0 -15 7 -15 15 0 8 -7 15 -15 15 -8 0 -15 7 -15 15 0 8
-7 15 -15 15 -8 0 -15 8 -15 18 0 13 -2 14 -9 3 -7 -11 -10 -9 -16 8 -3 12
-11 19 -16 16 -5 -4 -9 -1 -9 4 0 6 -7 11 -15 11 -8 0 -15 7 -15 15 0 8 -7 15
-15 15 -8 0 -15 7 -15 15 0 8 -7 15 -15 15 -8 0 -15 7 -15 15 0 8 -7 15 -15
15 -8 0 -15 5 -15 10 0 6 -7 10 -15 10 -8 0 -15 7 -15 15 0 13 -18 20 -42 16
-5 0 -8 6 -8 14 0 8 -7 15 -15 15 -8 0 -15 7 -15 15 0 8 -6 15 -14 15 -8 0
-16 7 -20 15 -3 8 -12 15 -21 15 -8 0 -14 5 -13 12 2 7 -2 12 -8 13 -6 0 -18
8 -28 17 -10 10 -24 18 -32 18 -8 0 -14 7 -14 15 0 8 -7 15 -15 15 -8 0 -15 5
-15 10 0 6 -7 10 -15 10 -8 0 -15 7 -15 15 0 8 -7 15 -15 15 -8 0 -15 7 -15
15 0 9 -9 15 -25 15 -16 0 -25 6 -25 15 0 8 -5 15 -10 15 -6 0 -21 11 -33 24
-13 14 -35 28 -50 31 -15 4 -24 11 -21 17 3 5 -3 12 -15 15 -12 3 -21 12 -21
19 0 8 -7 14 -15 14 -8 0 -15 4 -15 10 0 5 -11 12 -25 16 -14 3 -25 10 -25 15
0 5 -7 9 -15 9 -8 0 -15 7 -15 15 0 8 -9 15 -20 15 -11 0 -20 7 -20 15 0 9 -9
15 -25 15 -16 0 -25 6 -25 15 0 8 -7 15 -15 15 -8 0 -15 5 -15 10 0 6 -7 10
-15 10 -8 0 -23 9 -32 20 -10 11 -23 20 -30 20 -7 0 -12 5 -11 11 2 6 -8 13
-22 15 -13 3 -28 11 -33 19 -4 8 -15 15 -22 15 -8 0 -15 5 -15 10 0 6 -11 10
-25 10 -16 0 -25 6 -25 15 0 8 -7 15 -15 15 -12 0 -15 13 -15 60 0 50 3 60 18
60 14 0 15 2 2 10 -10 6 -11 10 -2 10 8 0 12 16 12 45 0 33 4 45 15 45 11 0
15 12 15 44 0 24 5 46 11 48 6 2 13 26 16 53 3 28 10 53 16 56 5 4 12 30 15
59 3 34 8 47 13 38 6 -9 9 -2 9 20 0 20 -4 31 -10 27 -6 -4 -10 8 -10 29 0 19
-7 41 -15 49 -7 8 -17 26 -21 41 -3 14 -10 26 -15 26 -5 0 -9 7 -9 15 0 8 -7
15 -15 15 -8 0 -15 7 -15 15 0 8 -7 15 -15 15 -8 0 -15 5 -15 10 0 6 -6 10
-14 10 -8 0 -22 8 -32 17 -9 9 -26 19 -37 20 -12 2 -25 9 -29 16 -10 16 -255
17 -266 1 -4 -6 -24 -14 -44 -18 -23 -4 -38 -13 -38 -21 0 -8 -7 -15 -15 -15
-8 0 -15 -4 -15 -10 0 -5 -7 -10 -15 -10 -8 0 -15 -7 -15 -15 0 -8 -7 -15 -15
-15 -8 0 -15 -7 -15 -15 0 -8 -4 -15 -10 -15 -5 0 -12 -17 -16 -37 -4 -21 -10
-40 -15 -43 -4 -3 -10 -25 -14 -50 -4 -25 -11 -47 -15 -50 -5 -3 -12 -30 -16
-60 -5 -38 -9 -49 -14 -35 -5 14 -8 7 -13 -25 -3 -25 -11 -46 -16 -48 -6 -2
-11 -21 -11 -43 0 -28 -4 -39 -15 -39 -11 0 -15 -12 -15 -45 0 -33 -4 -45 -15
-45 -11 0 -15 -11 -15 -40 0 -29 -4 -40 -15 -40 -10 0 -15 -10 -15 -30 0 -20
-5 -30 -15 -30 -11 0 -15 -12 -15 -44 0 -24 -4 -46 -10 -48 -5 -1 -11 -13 -13
-26 -2 -13 -9 -27 -15 -31 -11 -6 -19 -35 -21 -71 -1 -13 -3 -13 -10 -1 -7 11
-11 4 -17 -25 -4 -21 -11 -41 -15 -44 -5 -3 -10 -17 -12 -30 -2 -13 -9 -26
-15 -28 -7 -2 -12 -17 -12 -33 0 -19 -5 -29 -15 -29 -10 0 -15 -10 -15 -30 0
-20 -5 -30 -15 -30 -9 0 -15 -9 -15 -25 0 -16 -6 -25 -15 -25 -10 0 -15 -10
-15 -29 0 -16 -4 -31 -10 -33 -5 -1 -11 -13 -13 -26 -2 -13 -9 -27 -15 -31 -6
-4 -13 -16 -15 -28 -1 -11 -11 -28 -20 -37 -9 -10 -17 -24 -17 -32 0 -8 -4
-14 -9 -14 -5 0 -12 -13 -16 -30 -4 -16 -11 -30 -16 -30 -5 0 -11 -11 -15 -25
-3 -14 -10 -25 -15 -25 -5 0 -9 -9 -9 -20 0 -11 -7 -20 -15 -20 -9 0 -15 -9
-15 -25 0 -16 -6 -25 -15 -25 -10 0 -15 -10 -15 -30 0 -20 -5 -30 -15 -30 -8
0 -15 -6 -15 -14 0 -8 -4 -16 -10 -18 -5 -1 -11 -14 -14 -28 -2 -14 -8 -24
-14 -23 -5 1 -13 -9 -16 -23 -4 -14 -18 -36 -31 -48 -13 -12 -27 -34 -30 -49
-4 -15 -11 -27 -16 -27 -5 0 -9 -7 -9 -15 0 -8 -7 -15 -15 -15 -8 0 -15 -7
-15 -15 0 -8 -8 -15 -17 -16 -15 0 -15 -2 2 -9 17 -7 17 -9 3 -9 -11 -1 -18
-9 -18 -21 0 -11 -7 -20 -15 -20 -8 0 -15 -7 -15 -15 0 -8 -7 -15 -15 -15 -9
0 -15 -9 -15 -21 0 -12 -11 -32 -24 -44 -13 -12 -27 -32 -31 -45 -6 -18 -9
-20 -16 -9 -7 11 -9 10 -9 -4 0 -9 -9 -25 -19 -34 -11 -9 -18 -20 -15 -25 3
-4 -2 -11 -10 -14 -9 -3 -16 -12 -16 -20 0 -8 -6 -14 -14 -14 -7 0 -17 -8 -20
-17 -15 -39 -31 -63 -43 -63 -7 0 -13 -7 -13 -15 0 -8 -7 -15 -15 -15 -8 0
-15 -5 -15 -11 0 -6 -13 -24 -30 -41 -16 -16 -30 -34 -30 -39 0 -12 -37 -49
-50 -49 -6 0 -10 -7 -10 -15 0 -8 -4 -15 -10 -15 -5 0 -10 -7 -10 -15 0 -8 -7
-15 -15 -15 -8 0 -15 -7 -15 -15 0 -8 -7 -15 -15 -15 -8 0 -15 -7 -15 -15 0
-8 -7 -15 -15 -15 -8 0 -15 -5 -15 -11 0 -14 -85 -99 -99 -99 -6 0 -11 -7 -11
-15 0 -8 -7 -15 -15 -15 -8 0 -15 -7 -15 -15 0 -8 -7 -15 -15 -15 -8 0 -15 -7
-15 -15 0 -8 -7 -15 -15 -15 -8 0 -15 -7 -15 -15 0 -8 -7 -15 -15 -15 -8 0
-15 -7 -15 -15 0 -8 -7 -15 -15 -15 -8 0 -15 -5 -15 -10 0 -15 -64 -80 -79
-80 -6 0 -11 -4 -11 -10 0 -5 -7 -10 -15 -10 -8 0 -15 -7 -15 -15 0 -8 -7 -15
-15 -15 -8 0 -15 -7 -15 -15 0 -8 -4 -15 -10 -15 -5 0 -10 -7 -10 -15 0 -10
-10 -15 -30 -15 -20 0 -30 -5 -30 -15 0 -8 -7 -15 -15 -15 -8 0 -15 -7 -15
-15 0 -8 -7 -15 -15 -15 -8 0 -14 -5 -12 -12 1 -7 -3 -12 -9 -13 -6 0 -18 -8
-28 -18 -10 -9 -24 -17 -32 -17 -8 0 -14 -4 -14 -10 0 -5 -7 -10 -15 -10 -8 0
-15 -7 -15 -15 0 -8 -7 -15 -15 -15 -8 0 -15 -7 -15 -15 0 -9 -9 -15 -25 -15
-14 0 -28 -7 -31 -15 -4 -8 -12 -15 -20 -15 -8 0 -14 -7 -14 -15 0 -8 -7 -15
-15 -15 -8 0 -15 -4 -15 -10 0 -5 -11 -12 -24 -16 -14 -3 -27 -12 -30 -20 -3
-8 -12 -14 -21 -14 -8 0 -15 -4 -15 -10 0 -5 -11 -12 -25 -16 -14 -3 -25 -10
-25 -15 0 -5 -7 -9 -15 -9 -8 0 -15 -7 -15 -15 0 -10 -10 -15 -30 -15 -20 0
-30 -5 -30 -15 0 -8 -7 -15 -15 -15 -8 0 -15 -7 -15 -15 0 -9 -9 -15 -24 -15
-13 0 -26 -7 -30 -15 -3 -8 -9 -15 -13 -14 -4 1 -17 1 -28 0 -16 -1 -17 -3 -6
-10 12 -8 9 -11 -12 -16 -15 -4 -27 -11 -27 -15 0 -5 -13 -11 -30 -15 -16 -4
-30 -11 -30 -16 0 -5 -11 -11 -25 -15 -14 -3 -25 -10 -25 -15 0 -5 -9 -9 -20
-9 -11 0 -20 -7 -20 -15 0 -8 -3 -14 -7 -14 -28 5 -53 -3 -53 -16 0 -9 -9 -15
-25 -15 -16 0 -25 -6 -25 -15 0 -10 -10 -15 -30 -15 -16 0 -30 -4 -30 -9 0 -5
-13 -12 -30 -16 -16 -4 -30 -10 -30 -15 0 -4 -12 -11 -26 -14 -15 -4 -33 -14
-41 -21 -8 -8 -28 -15 -44 -15 -19 0 -29 -5 -29 -15 0 -10 -10 -15 -30 -15
-16 0 -30 -4 -30 -10 0 -5 -11 -10 -25 -10 -14 0 -28 -7 -31 -15 -4 -8 -18
-15 -34 -15 -16 0 -35 -7 -44 -15 -8 -8 -26 -15 -40 -15 -16 0 -26 -6 -26 -15
0 -11 -11 -15 -39 -15 -25 0 -41 -5 -45 -15 -3 -10 -19 -15 -45 -15 -25 0 -41
-5 -45 -15 -3 -8 -16 -15 -30 -15 -13 0 -26 -5 -28 -10 -2 -6 -21 -13 -43 -17
-22 -3 -43 -11 -46 -16 -4 -5 -30 -12 -58 -15 -28 -2 -51 -8 -51 -13 0 -5 -20
-9 -45 -9 -33 0 -45 -4 -45 -15 0 -12 -13 -15 -55 -15 -42 0 -55 -3 -55 -15 0
-12 -13 -15 -60 -15 -47 0 -60 -3 -60 -15 0 -12 -13 -15 -59 -15 -33 0 -61 -4
-63 -10 -1 -5 -38 -13 -81 -16 -43 -4 -73 -10 -67 -14 13 -8 -62 -20 -126 -20
-23 0 -44 -5 -46 -12 -3 -7 -43 -13 -114 -16 -64 -3 -112 -9 -116 -16 -5 -7
-69 -12 -188 -14 -99 -2 -180 -8 -180 -13 0 -5 -69 -9 -155 -9 -97 0 -155 4
-155 10 0 6 -48 10 -122 10 -148 0 -271 10 -243 20 11 4 -32 9 -95 12 -70 4
-116 10 -118 17 -2 7 -32 11 -77 11 -49 0 -78 5 -87 14 -8 8 -43 15 -83 18
-41 2 -70 9 -73 16 -2 8 -26 12 -63 12 -43 0 -59 4 -59 13 0 10 -18 14 -62 16
-42 1 -67 7 -74 16 -7 9 -28 15 -53 15 -30 0 -41 4 -41 15 0 12 -13 15 -55 15
-30 0 -55 4 -55 9 0 4 -19 11 -41 14 -23 3 -45 10 -48 15 -3 5 -25 13 -49 17
-23 4 -40 10 -37 15 2 4 -18 10 -46 14 -27 4 -47 11 -45 15 3 5 -13 11 -36 14
-24 3 -44 11 -46 16 -2 6 -17 11 -33 11 -19 0 -29 5 -29 15 0 11 -11 15 -39
15 -25 0 -41 5 -45 15 -3 8 -17 15 -31 15 -16 0 -25 6 -25 15 0 11 -11 15 -41
15 -23 0 -47 7 -55 15 -9 8 -24 15 -35 15 -11 0 -18 4 -15 9 3 5 -10 12 -29
15 -20 4 -33 11 -30 16 3 4 -8 11 -25 15 -16 4 -30 10 -30 15 0 5 -13 11 -30
15 -16 4 -30 11 -30 16 0 5 -13 9 -30 9 -20 0 -30 5 -30 15 0 10 -10 15 -30
15 -20 0 -30 5 -30 15 0 9 -9 15 -25 15 -16 0 -25 6 -25 15 0 10 -10 15 -30
15 -16 0 -30 4 -30 9 0 5 -15 13 -32 17 -29 6 -30 8 -13 15 17 7 18 8 3 10
-10 1 -23 2 -28 3 -6 0 -14 6 -18 13 -4 6 -19 15 -35 18 -15 4 -24 11 -21 16
3 5 -2 9 -11 9 -8 0 -18 7 -21 15 -4 8 -17 15 -30 15 -15 0 -24 6 -24 15 0 10
-10 15 -30 15 -20 0 -30 5 -30 15 0 8 -7 15 -15 15 -8 0 -15 7 -15 15 0 9 -9
15 -25 15 -14 0 -25 5 -25 10 0 6 -7 10 -15 10 -9 0 -18 7 -21 15 -3 8 -15 17
-26 21 -12 3 -31 16 -42 28 -12 13 -29 25 -38 29 -10 3 -18 11 -18 17 0 5 -9
10 -20 10 -11 0 -20 7 -20 15 0 8 -9 15 -20 15 -11 0 -20 7 -20 15 0 8 -7 15
-15 15 -8 0 -15 8 -15 18 0 14 -2 15 -10 2 -6 -10 -10 -11 -10 -2 0 6 -5 12
-10 12 -6 0 -21 11 -34 25 -13 14 -28 25 -35 25 -6 0 -11 6 -11 14 0 8 -14 17
-30 21 -17 4 -28 10 -26 14 6 9 -22 34 -47 44 -9 3 -17 11 -17 17 0 5 -7 10
-15 10 -8 0 -15 7 -15 15 0 8 -7 15 -15 15 -8 0 -15 5 -15 11 0 16 -25 37 -54
45 -14 3 -23 10 -20 16 3 5 -3 12 -15 15 -12 3 -21 12 -21 19 0 8 -7 14 -15
14 -8 0 -15 5 -15 11 0 11 -24 39 -34 39 -9 0 -106 101 -106 110 0 6 -7 10
-15 10 -8 0 -15 7 -15 15 0 8 -4 15 -10 15 -13 0 -50 37 -50 51 0 5 -4 7 -10
4 -5 -3 -10 0 -10 7 0 15 -35 48 -50 48 -6 0 -10 7 -10 15 0 8 -6 15 -14 15
-8 0 -17 13 -21 30 -4 16 -11 30 -17 30 -13 0 -38 26 -38 39 0 6 -7 11 -15 11
-8 0 -15 7 -15 15 0 9 -7 18 -15 21 -8 4 -15 12 -15 20 0 8 -5 14 -11 14 -16
0 -37 25 -45 54 -3 14 -12 26 -20 26 -8 0 -14 7 -14 15 0 8 -7 15 -15 15 -8 0
-15 7 -15 16 0 8 -4 12 -10 9 -6 -3 -10 0 -10 7 0 8 -9 21 -20 31 -11 9 -20
24 -20 32 0 8 -4 15 -10 15 -5 0 -10 7 -10 15 0 8 -7 15 -15 15 -8 0 -15 7
-15 15 0 8 -7 15 -15 15 -10 0 -15 10 -15 30 0 17 -5 30 -11 30 -16 0 -37 25
-44 53 -4 14 -13 28 -21 31 -8 3 -14 13 -14 21 0 9 -4 14 -9 11 -5 -4 -13 8
-17 26 -6 28 -8 30 -14 13 -6 -17 -8 -16 -14 10 -4 17 -12 32 -17 36 -6 3 -11
16 -12 27 -1 12 -7 22 -14 22 -7 0 -13 6 -13 14 0 8 -7 16 -15 20 -8 3 -15 17
-15 31 0 16 -6 25 -15 25 -8 0 -15 7 -15 15 0 8 -7 15 -15 15 -10 0 -15 10
-15 29 0 16 -6 31 -15 35 -8 3 -15 14 -15 25 0 10 -7 21 -15 25 -8 3 -15 12
-15 21 0 8 -4 15 -9 15 -5 0 -12 14 -16 30 -4 17 -10 28 -15 25 -5 -3 -11 8
-15 25 -4 16 -11 30 -16 30 -5 0 -9 14 -9 30 0 20 -5 30 -15 30 -8 0 -15 7
-15 15 0 8 -6 15 -12 15 -9 0 -8 4 2 10 13 8 12 10 -2 10 -11 0 -18 8 -18 20
0 11 -6 20 -12 20 -9 0 -8 4 2 10 13 8 12 10 -2 10 -13 0 -18 8 -18 25 0 14
-7 28 -15 31 -8 4 -15 17 -15 31 0 13 -4 22 -9 19 -10 -7 -21 16 -21 44 0 10
-5 20 -12 22 -6 2 -13 15 -15 28 -2 13 -9 27 -15 31 -6 4 -13 18 -15 30 -2 13
-7 26 -12 29 -5 3 -12 16 -16 30 -4 14 -11 27 -16 30 -4 3 -9 22 -11 43 -1 22
-7 37 -15 37 -8 0 -13 12 -13 30 0 20 -5 30 -15 30 -10 0 -15 10 -15 30 0 20
-5 30 -15 30 -11 0 -15 11 -15 40 0 22 -4 40 -9 40 -5 0 -12 19 -16 43 -4 23
-13 45 -19 49 -11 7 -13 12 -15 49 0 11 -5 18 -10 15 -5 -3 -11 13 -14 36 -3
22 -10 44 -15 47 -5 3 -13 25 -17 49 -4 23 -11 42 -15 42 -5 0 -12 25 -15 55
-4 30 -11 55 -16 55 -5 0 -9 18 -9 40 0 29 -4 40 -15 40 -11 0 -15 12 -15 44
0 30 -5 46 -15 50 -8 3 -15 17 -15 31 0 14 -5 25 -11 25 -7 0 -22 11 -35 25
-12 13 -34 27 -48 31 -14 3 -24 10 -21 14 3 4 -7 11 -22 15 -16 3 -30 11 -33
16 -4 5 -40 12 -81 15 -85 7 -226 -4 -194 -16 14 -5 8 -8 -25 -13 -25 -3 -46
-11 -48 -16 -2 -6 -10 -11 -18 -11 -8 0 -14 -4 -14 -10 0 -17 -38 -50 -43 -37
-3 7 -8 0 -12 -15 -4 -16 -13 -28 -21 -28 -8 0 -14 -7 -14 -15 0 -8 -4 -15 -9
-15 -5 0 -12 -14 -16 -30 -4 -16 -12 -30 -18 -30 -7 0 -6 -4 3 -10 10 -6 11
-10 3 -10 -15 0 -19 -116 -4 -122 5 -1 11 -25 14 -52 4 -27 10 -52 15 -55 5
-3 12 -24 15 -45 4 -22 10 -42 15 -45 5 -3 13 -30 17 -60 5 -36 10 -49 16 -40
6 10 9 3 10 -21 1 -19 1 -39 0 -43 -1 -4 6 -10 15 -14 13 -5 13 -7 2 -14 -10
-7 -10 -9 0 -9 6 0 12 -12 12 -27 0 -16 7 -37 15 -47 8 -11 15 -32 15 -48 0
-18 5 -28 15 -28 11 0 15 -11 15 -39 0 -25 5 -41 15 -45 10 -3 15 -19 15 -46
0 -29 4 -40 15 -40 10 0 15 -10 15 -31 0 -17 4 -28 10 -24 6 3 11 -3 11 -14 2
-37 4 -42 15 -49 6 -4 14 -24 18 -45 4 -20 11 -37 16 -37 4 0 11 -14 15 -30 4
-17 10 -30 15 -30 5 0 11 -14 15 -30 4 -17 11 -30 16 -30 5 0 9 -13 9 -30 0
-20 5 -30 15 -30 9 0 15 -9 15 -25 0 -16 6 -25 15 -25 10 0 15 -10 15 -30 0
-20 5 -30 15 -30 10 0 15 -10 15 -30 0 -20 5 -30 15 -30 10 0 15 -10 15 -30 0
-16 4 -30 9 -30 5 0 12 -11 15 -25 4 -14 10 -25 15 -25 5 0 12 -14 16 -30 4
-17 11 -30 16 -30 5 0 9 -7 9 -15 0 -8 9 -23 19 -32 11 -9 18 -20 15 -25 -3
-4 2 -11 10 -14 9 -3 16 -17 16 -30 0 -14 7 -27 15 -30 8 -4 15 -17 15 -30 0
-15 6 -24 15 -24 8 0 15 -7 15 -15 0 -8 7 -15 15 -15 9 0 15 -9 15 -24 0 -13
7 -27 16 -30 8 -3 12 -10 9 -16 -3 -6 1 -13 9 -16 9 -3 16 -12 16 -19 0 -8 8
-21 17 -31 10 -10 18 -22 18 -28 1 -6 6 -10 12 -9 6 1 14 -9 17 -23 4 -14 18
-36 31 -48 14 -13 25 -33 25 -45 0 -12 6 -21 15 -21 8 0 15 -9 15 -20 0 -11 7
-20 15 -20 8 0 15 -7 15 -15 0 -8 7 -15 15 -15 9 0 15 -9 15 -25 0 -16 6 -25
15 -25 8 0 15 -7 15 -15 0 -8 5 -15 10 -15 6 0 10 -7 10 -15 0 -8 7 -15 15
-15 8 0 15 -6 15 -14 0 -8 13 -28 30 -44 16 -17 30 -38 30 -46 0 -9 7 -16 15
-16 8 0 15 -4 15 -10 0 -5 7 -10 15 -10 10 0 15 -10 15 -30 0 -20 5 -30 15
-30 8 0 15 -7 15 -15 0 -8 5 -15 11 -15 13 0 44 -30 44 -44 1 -6 6 -10 13 -9
7 2 12 -2 12 -8 0 -15 65 -79 80 -79 5 0 10 -7 10 -15 0 -8 7 -15 15 -15 8 0
15 -8 15 -19 0 -10 7 -24 15 -31 8 -7 15 -19 15 -26 0 -8 7 -14 15 -14 8 0 15
-4 15 -10 0 -5 7 -10 15 -10 8 0 15 -4 15 -10 0 -12 98 -110 110 -110 6 0 10
-7 10 -15 0 -8 5 -15 10 -15 6 0 10 -7 10 -15 0 -10 10 -15 30 -15 20 0 30 -5
30 -15 0 -8 7 -15 15 -15 8 0 15 -4 15 -10 0 -15 33 -50 47 -50 7 0 12 -5 10
-12 -1 -7 5 -13 13 -13 8 0 14 -6 13 -13 -2 -7 4 -12 12 -12 9 0 18 -7 21 -15
4 -8 12 -15 20 -15 8 0 14 -7 14 -15 0 -8 5 -15 10 -15 6 0 10 -7 10 -15 0
-10 10 -15 30 -15 20 0 30 -5 30 -15 0 -8 7 -15 15 -15 8 0 15 -7 15 -15 0 -8
7 -15 16 -15 8 0 12 -5 9 -10 -3 -6 1 -10 10 -10 8 0 18 -7 21 -15 3 -8 15
-17 26 -21 12 -3 31 -17 43 -30 12 -13 27 -24 34 -24 6 0 11 -7 11 -15 0 -8 6
-15 14 -15 8 0 16 -7 20 -15 3 -8 17 -15 31 -15 16 0 25 -6 25 -15 0 -8 7 -15
15 -15 8 0 15 -4 15 -9 0 -5 10 -13 23 -17 12 -4 25 -12 29 -18 4 -6 13 -11
20 -11 7 -1 12 -6 11 -12 -1 -6 10 -14 24 -18 20 -5 23 -9 14 -15 -10 -5 -4
-10 18 -15 17 -3 31 -11 31 -16 0 -5 7 -9 15 -9 8 0 15 -7 15 -15 0 -9 9 -15
25 -15 16 0 25 -6 25 -15 0 -8 9 -15 20 -15 12 0 20 -7 20 -17 0 -15 2 -16 10
-3 6 10 10 11 10 3 0 -7 9 -13 20 -13 11 0 20 -4 20 -10 0 -5 12 -13 26 -16
19 -5 22 -9 12 -15 -9 -6 -5 -9 15 -9 17 0 27 -5 27 -14 0 -8 13 -17 30 -21
16 -4 30 -11 30 -16 0 -5 11 -11 25 -15 14 -3 25 -10 25 -15 0 -5 9 -9 20 -9
11 0 20 -7 20 -15 0 -9 9 -15 25 -15 16 0 25 -6 25 -15 0 -10 10 -15 30 -15
20 0 30 -5 30 -15 0 -9 9 -15 25 -15 14 0 25 -4 25 -9 0 -5 14 -12 30 -16 17
-4 30 -10 30 -15 0 -5 14 -11 30 -15 17 -4 30 -10 30 -15 0 -5 14 -12 31 -15
20 -5 27 -10 20 -15 -8 -4 4 -10 28 -14 23 -3 41 -11 41 -16 0 -6 11 -10 25
-10 16 0 25 -6 25 -15 0 -10 10 -15 29 -15 16 0 31 -6 35 -15 3 -8 17 -15 31
-15 16 0 25 -6 25 -15 0 -10 10 -15 30 -15 17 0 30 -4 30 -9 0 -5 20 -12 45
-16 25 -3 43 -10 40 -16 -4 -5 3 -10 14 -10 37 -2 42 -4 49 -15 4 -6 24 -14
45 -18 20 -4 37 -11 37 -15 0 -5 19 -11 42 -15 32 -5 39 -9 28 -16 -11 -7 -1
-10 33 -10 35 0 47 -4 47 -15 0 -11 11 -15 40 -15 29 0 40 -4 40 -15 0 -11 11
-15 40 -15 27 0 43 -5 46 -15 4 -10 20 -15 45 -15 26 0 42 -5 45 -15 4 -10 20
-15 45 -15 21 0 39 -4 39 -9 0 -5 23 -11 51 -13 28 -3 54 -10 58 -15 3 -6 27
-13 54 -17 26 -4 47 -11 47 -17 0 -5 12 -9 28 -9 52 0 104 -12 90 -21 -8 -6 4
-9 32 -10 61 -1 94 -8 98 -19 2 -6 30 -10 63 -10 46 0 59 -3 59 -15 0 -12 16
-15 80 -15 58 0 81 -4 87 -14 6 -11 31 -15 91 -17 61 -1 82 -5 82 -15 0 -11
22 -14 100 -14 60 0 100 -4 100 -10 0 -6 33 -10 78 -10 120 0 249 -12 227 -21
-11 -4 186 -8 438 -8 253 -1 456 3 453 8 -7 10 101 21 222 21 67 0 92 3 92 13
0 8 4 7 10 -3 6 -10 10 -11 10 -2 0 9 25 12 89 12 70 0 90 3 95 15 4 12 24 15
86 15 64 0 80 3 80 15 0 12 15 15 75 15 65 0 75 2 75 18 0 14 2 15 10 2 6 -10
10 -11 10 -2 0 8 19 12 59 12 33 0 61 5 63 10 2 6 28 13 58 17 30 3 58 10 61
15 3 5 28 11 55 15 27 3 52 10 55 15 3 4 29 11 57 15 29 3 52 10 52 14 0 5 23
11 50 15 28 4 50 10 50 15 0 5 23 9 50 9 36 0 52 4 56 15 4 10 20 15 45 15 28
0 39 4 39 15 0 11 12 15 45 15 33 0 45 4 45 15 0 11 12 15 45 15 33 0 45 4 45
15 0 10 10 15 30 15 17 0 30 4 30 10 0 5 18 13 40 16 22 4 40 10 40 15 0 5 18
12 41 15 27 5 36 10 28 15 -9 5 1 10 29 15 23 4 42 10 42 15 0 4 16 11 35 15
19 3 35 10 35 15 0 5 14 9 30 9 20 0 30 5 30 15 0 11 11 15 40 15 29 0 40 4
40 15 0 9 9 15 25 15 16 0 25 6 25 15 0 10 10 15 30 15 17 0 30 4 30 9 0 5 14
12 30 16 17 4 30 10 30 15 0 5 14 11 30 15 17 4 30 10 30 15 0 5 14 11 30 15
17 4 30 11 30 16 0 5 11 11 25 15 14 3 25 10 25 15 0 5 14 9 30 9 20 0 30 5
30 15 0 8 6 15 14 15 8 0 16 7 20 15 3 8 17 15 31 15 16 0 25 6 25 15 0 10 10
15 30 15 17 0 30 4 30 10 0 5 11 12 24 16 14 3 27 12 30 20 3 8 12 14 21 14 8
0 15 4 15 9 0 5 11 12 25 15 14 4 25 10 25 15 0 5 14 12 30 16 17 4 30 11 30
16 0 5 7 9 15 9 8 0 15 7 15 15 0 9 9 15 25 15 16 0 25 6 25 15 0 8 9 15 20
15 11 0 20 7 20 15 0 8 9 15 20 15 12 0 31 11 43 24 12 13 32 26 45 30 13 4
36 21 53 37 16 16 36 29 44 29 8 0 15 5 15 10 0 6 7 10 15 10 9 0 18 7 21 15
4 8 12 15 20 15 8 0 14 7 14 15 0 9 9 15 25 15 16 0 25 6 25 15 0 8 7 15 15
15 8 0 15 5 15 10 0 6 12 10 26 10 26 0 54 -20 54 -39 0 -6 6 -11 14 -11 8 0
18 -14 21 -31 5 -23 9 -28 16 -18 6 10 9 8 9 -9 0 -12 7 -25 15 -28 8 -4 15
-12 15 -20 0 -8 8 -14 17 -14 13 0 14 -3 5 -12 -15 -15 -16 -48 -2 -48 6 0 10
-11 10 -25 0 -16 6 -25 15 -25 10 0 15 -10 15 -30 0 -20 5 -30 15 -30 11 0 15
-12 15 -45 0 -33 4 -45 15 -45 9 0 15 -9 15 -25 0 -16 6 -25 15 -25 8 0 15 -7
15 -15 0 -8 5 -15 10 -15 6 0 10 -14 10 -30 0 -18 8 -37 19 -47 11 -9 18 -20
15 -25 -3 -4 2 -11 10 -14 11 -4 16 -19 16 -50 0 -34 3 -42 15 -38 9 4 15 0
15 -10 0 -9 -4 -16 -10 -16 -5 0 -10 -7 -10 -15 0 -8 4 -15 10 -15 5 0 13 -12
16 -26 4 -14 9 -21 13 -16 4 6 11 4 19 -4 7 -8 8 -14 2 -14 -5 0 -10 -4 -10
-10 0 -5 7 -7 15 -4 10 4 15 0 15 -15 0 -12 6 -21 15 -21 10 0 15 -10 15 -30
0 -20 5 -30 15 -30 11 0 15 -12 15 -45 0 -33 4 -45 15 -45 11 0 15 -11 15 -35
0 -25 7 -43 25 -59 28 -26 33 -56 10 -56 -9 0 -15 -9 -15 -25 0 -14 -4 -25
-10 -25 -5 0 -10 -7 -10 -15 0 -9 9 -15 25 -15 16 0 25 -6 25 -15 0 -8 -4 -15
-10 -15 -5 0 -10 -7 -10 -15 0 -8 -7 -15 -15 -15 -8 0 -15 -7 -15 -15 0 -8 -7
-15 -15 -15 -8 0 -15 -7 -15 -15 0 -8 -7 -15 -15 -15 -9 0 -15 -9 -15 -25 0
-16 -6 -25 -15 -25 -8 0 -15 5 -15 10 0 6 -7 10 -15 10 -8 0 -15 -4 -15 -10 0
-5 7 -10 15 -10 8 0 15 -7 15 -15 0 -9 -9 -15 -25 -15 -16 0 -25 -6 -25 -15 0
-10 -10 -15 -30 -15 -20 0 -30 -5 -30 -15 0 -10 -10 -15 -30 -15 -20 0 -30 -5
-30 -15 0 -10 -10 -15 -30 -15 -20 0 -30 -5 -30 -15 0 -8 -7 -15 -15 -15 -8 0
-15 -7 -15 -15 0 -9 -9 -15 -25 -15 -16 0 -25 -6 -25 -15 0 -8 -7 -15 -15 -15
-8 0 -15 -4 -15 -10 0 -5 -7 -10 -15 -10 -8 0 -15 -7 -15 -15 0 -8 -7 -15 -15
-15 -8 0 -15 -7 -15 -15 0 -10 -10 -15 -30 -15 -20 0 -30 -5 -30 -15 0 -8 -7
-15 -15 -15 -8 0 -15 -7 -15 -15 0 -9 -9 -15 -24 -15 -13 0 -26 -7 -30 -15 -3
-8 -17 -15 -31 -15 -16 0 -25 -6 -25 -15 0 -8 -6 -15 -14 -15 -8 0 -16 -7 -20
-15 -3 -8 -17 -15 -31 -15 -14 0 -25 -4 -25 -10 0 -5 -13 -10 -30 -10 -20 0
-30 -5 -30 -15 0 -9 -9 -15 -25 -15 -16 0 -25 -6 -25 -15 0 -8 -7 -15 -15 -15
-8 0 -15 -7 -15 -15 0 -10 -10 -15 -29 -15 -16 0 -31 -6 -35 -15 -3 -8 -17
-15 -31 -15 -16 0 -25 -6 -25 -15 0 -10 -10 -15 -30 -15 -20 0 -30 -5 -30 -15
0 -9 -9 -15 -24 -15 -13 0 -26 -7 -30 -15 -3 -8 -17 -15 -31 -15 -14 0 -25 -4
-25 -10 0 -5 -7 -10 -15 -10 -8 0 -15 -7 -15 -15 0 -10 -10 -15 -30 -15 -20 0
-30 -5 -30 -15 0 -10 -10 -15 -30 -15 -20 0 -30 -5 -30 -15 0 -9 -9 -15 -24
-15 -13 0 -26 -5 -28 -10 -2 -6 -21 -13 -43 -17 -22 -3 -43 -11 -47 -16 -3 -6
-31 -12 -62 -15 -39 -3 -56 -9 -56 -18 0 -8 -10 -14 -24 -14 -13 0 -26 -7 -30
-15 -3 -8 -17 -15 -31 -15 -14 0 -25 -4 -25 -10 0 -5 -20 -10 -45 -10 -33 0
-45 -4 -45 -15 0 -10 -10 -15 -30 -15 -20 0 -30 -5 -30 -15 0 -9 -9 -15 -25
-15 -16 0 -25 -6 -25 -15 0 -11 -12 -15 -45 -15 -33 0 -45 -4 -45 -15 0 -10
-10 -15 -30 -15 -20 0 -30 -5 -30 -15 0 -11 -11 -15 -39 -15 -25 0 -41 -5 -45
-15 -3 -10 -19 -15 -45 -15 -25 0 -41 -5 -45 -15 -3 -10 -19 -15 -46 -15 -22
0 -40 -4 -40 -10 0 -5 -25 -10 -55 -10 -42 0 -55 -3 -55 -15 0 -11 -12 -15
-45 -15 -33 0 -45 -4 -45 -15 0 -11 -12 -15 -45 -15 -33 0 -45 -4 -45 -15 0
-11 -11 -15 -40 -15 -29 0 -40 -4 -40 -15 0 -12 -13 -15 -61 -15 -33 0 -58 -4
-55 -9 3 -5 -20 -11 -51 -13 -31 -3 -59 -10 -61 -16 -2 -7 -27 -12 -60 -13
-51 0 -112 -14 -87 -20 6 -1 -23 -5 -63 -9 -41 -3 -77 -11 -80 -17 -4 -6 -45
-12 -91 -15 -55 -2 -86 -8 -89 -16 -2 -8 -33 -12 -103 -12 -81 0 -99 -3 -99
-15 0 -13 -24 -15 -155 -15 -131 0 -155 -2 -155 -15 0 -13 -70 -15 -570 -15
-500 0 -570 2 -570 15 0 13 -24 15 -155 15 -131 0 -155 2 -155 15 0 12 -18 15
-105 15 -58 0 -105 4 -105 9 0 5 -43 10 -96 13 -52 2 -98 9 -102 15 -4 6 -35
12 -70 15 -35 2 -67 9 -70 15 -4 6 -38 12 -75 15 -38 2 -71 9 -75 15 -4 6 -36
12 -71 15 -37 3 -67 10 -69 16 -2 7 -26 12 -63 12 -46 0 -59 3 -59 15 0 12
-13 15 -55 15 -42 0 -55 3 -55 15 0 12 -13 15 -60 15 -47 0 -60 3 -60 15 0 11
-11 15 -40 15 -29 0 -40 4 -40 15 0 12 -13 15 -60 15 -33 0 -60 4 -60 10 0 5
-17 12 -37 16 -21 4 -41 11 -44 16 -3 5 -23 11 -45 15 -21 3 -42 10 -45 15 -3
5 -25 12 -48 15 -22 3 -41 9 -41 14 0 5 -18 12 -40 15 -22 4 -40 10 -40 15 0
5 -13 9 -30 9 -20 0 -30 5 -30 15 0 11 -11 15 -40 15 -29 0 -40 4 -40 15 0 10
-10 15 -30 15 -20 0 -30 5 -30 15 0 11 -12 15 -45 15 -33 0 -45 4 -45 15 0 10
-10 15 -30 15 -20 0 -30 5 -30 15 0 11 -11 15 -40 15 -22 0 -40 4 -40 10 0 5
-16 12 -35 16 -19 3 -35 10 -35 15 0 5 -11 9 -25 9 -16 0 -25 6 -25 15 0 10
-10 15 -30 15 -20 0 -30 5 -30 15 0 11 -12 15 -45 15 -33 0 -45 4 -45 15 0 9
-9 15 -25 15 -16 0 -25 6 -25 15 0 10 -10 15 -30 15 -16 0 -30 4 -30 9 0 5
-14 12 -30 16 -17 4 -30 10 -30 15 0 5 -13 11 -30 15 -17 4 -30 10 -30 15 0 4
-12 11 -26 14 -29 8 -54 29 -54 45 0 6 -13 11 -30 11 -20 0 -30 5 -30 15 0 10
-10 15 -30 15 -20 0 -30 5 -30 15 0 10 -10 15 -30 15 -20 0 -30 5 -30 15 0 9
-10 15 -26 15 -26 0 -54 20 -54 39 0 6 -13 11 -30 11 -19 0 -30 5 -30 14 0 8
-12 17 -27 21 -15 3 -37 17 -50 31 -24 26 -48 31 -56 12 -3 -7 -6 -1 -6 15 -1
20 -6 27 -21 27 -11 0 -20 7 -20 15 0 9 -9 15 -25 15 -16 0 -25 6 -25 15 0 10
-10 15 -30 15 -16 0 -30 4 -30 10 0 18 -34 50 -55 50 -11 1 -31 14 -45 30 -13
17 -30 30 -37 30 -7 0 -13 5 -13 10 0 6 -11 10 -25 10 -16 0 -25 6 -25 15 0 8
-7 15 -15 15 -8 0 -15 7 -15 15 0 10 -10 15 -30 15 -20 0 -30 5 -30 15 0 8 -7
15 -15 15 -8 0 -15 5 -15 10 0 6 -7 10 -15 10 -8 0 -15 7 -15 15 0 9 -9 15
-25 15 -16 0 -25 6 -25 15 0 8 -7 15 -15 15 -8 0 -15 7 -15 15 0 8 -7 15 -15
15 -8 0 -15 7 -15 15 0 10 -10 15 -30 15 -20 0 -30 5 -30 15 0 8 -7 15 -15 15
-8 0 -15 7 -15 15 0 8 -7 15 -15 15 -8 0 -15 7 -15 15 0 8 -7 15 -15 15 -8 0
-15 4 -15 9 0 5 -11 12 -25 15 -14 4 -25 13 -25 21 0 8 -7 15 -15 15 -8 0 -15
7 -15 15 0 8 -7 15 -15 15 -8 0 -15 7 -15 15 0 8 -7 15 -15 15 -8 0 -15 5 -15
10 0 6 -7 10 -15 10 -8 0 -15 7 -15 15 0 8 -7 15 -15 15 -8 0 -15 7 -15 15 0
9 -9 15 -25 15 -16 0 -25 6 -25 15 0 8 -7 15 -15 15 -8 0 -15 7 -15 15 0 8 -7
15 -15 15 -8 0 -15 7 -15 15 0 8 -7 15 -15 15 -8 0 -15 7 -15 15 0 8 -7 15
-15 15 -8 0 -15 7 -15 15 0 8 -7 15 -15 15 -8 0 -15 5 -15 11 0 16 -26 39 -44
39 -9 0 -16 7 -16 15 0 8 -7 15 -15 15 -8 0 -15 7 -15 15 0 8 -7 15 -15 15 -8
0 -15 7 -15 15 0 8 -7 15 -15 15 -8 0 -15 4 -15 9 0 5 -20 12 -45 16 -25 3
-43 10 -40 16 4 5 -1 9 -9 9 -9 0 -16 5 -16 10 0 6 -11 21 -24 33 -14 13 -28
35 -31 50 -4 15 -13 27 -21 27 -8 0 -14 7 -14 15 0 9 -9 15 -25 15 -16 0 -25
6 -25 15 0 8 -7 15 -15 15 -8 0 -15 5 -15 10 0 6 -7 10 -15 10 -8 0 -15 7 -15
15 0 8 -7 15 -15 15 -8 0 -15 7 -15 15 0 11 -11 15 -38 15 -30 0 -43 6 -62 30
-14 16 -31 29 -37 30 -7 0 -13 7 -13 15 0 8 -4 15 -10 15 -5 0 -10 7 -10 15 0
8 -7 15 -15 15 -8 0 -15 7 -15 15 0 8 -7 15 -15 15 -8 0 -15 5 -15 10 0 6 -7
10 -15 10 -8 0 -15 7 -15 15 0 8 -7 15 -15 15 -8 0 -15 7 -15 15 0 8 -7 15
-15 15 -10 0 -15 10 -15 30 0 20 -5 30 -15 30 -8 0 -15 7 -15 15 0 8 -7 15
-15 15 -8 0 -15 7 -15 15 0 8 -7 15 -15 15 -8 0 -15 5 -15 11 0 22 -29 37 -83
44 -51 7 -57 10 -57 31 0 15 -6 24 -15 24 -10 0 -15 10 -15 30 0 20 -5 30 -15
30 -10 0 -15 10 -15 30 0 20 -5 30 -15 30 -8 0 -15 7 -15 15 0 8 -7 15 -15 15
-8 0 -15 5 -15 10 0 6 -18 10 -40 10 -29 0 -40 4 -40 15 0 8 -7 15 -15 15 -8
0 -15 6 -15 14 0 9 -12 16 -27 18 -22 2 -29 9 -31 31 -2 15 -9 27 -18 27 -8 0
-14 7 -14 15 0 8 -7 15 -15 15 -10 0 -15 10 -15 30 0 17 -5 30 -11 30 -19 0
-39 28 -39 53 0 20 -6 27 -30 32 -23 5 -30 12 -30 31 0 15 -6 24 -15 24 -8 0
-15 7 -15 15 0 8 -7 15 -15 15 -10 0 -15 10 -15 30 0 20 -5 30 -15 30 -9 0
-15 9 -15 25 0 16 -6 25 -15 25 -8 0 -15 7 -15 15 0 11 -11 15 -40 15 -38 0
-40 2 -40 30 0 20 -5 30 -15 30 -10 0 -15 10 -15 30 0 27 -3 30 -30 30 -27 0
-30 3 -30 30 0 27 -3 30 -30 30 -16 0 -30 5 -30 10 0 6 -7 10 -15 10 -10 0
-15 10 -15 30 0 20 -5 30 -15 30 -10 0 -15 10 -15 30 0 17 -4 30 -10 30 -5 0
-10 14 -10 30 0 20 -5 30 -15 30 -8 0 -15 7 -15 15 0 11 -11 15 -40 15 -46 0
-80 24 -80 56 0 12 -7 24 -15 28 -8 3 -15 17 -15 31 0 16 -6 25 -15 25 -10 0
-15 10 -15 30 0 20 -5 30 -15 30 -9 0 -15 9 -15 25 0 14 -4 25 -10 25 -5 0
-10 7 -10 15 0 8 -7 15 -15 15 -8 0 -15 7 -15 15 0 8 -7 15 -15 15 -8 0 -15 6
-15 14 0 8 -11 17 -25 20 -21 5 -25 12 -25 46 0 29 -4 40 -15 40 -8 0 -15 7
-15 15 0 8 -7 15 -15 15 -9 0 -15 9 -15 25 0 14 -6 28 -14 31 -7 3 -16 23 -20
45 -3 21 -10 39 -15 39 -5 0 -12 13 -16 30 -4 16 -11 30 -16 30 -5 0 -9 18 -9
39 0 36 -3 40 -30 46 -23 5 -30 12 -30 31 0 15 -6 24 -15 24 -10 0 -15 10 -15
30 0 29 -2 30 -45 30 -43 0 -45 1 -45 30 0 20 -5 30 -15 30 -11 0 -15 11 -15
40 0 22 -4 40 -10 40 -5 0 -10 14 -10 30 0 20 -5 30 -15 30 -8 0 -15 7 -15 15
0 8 -7 15 -15 15 -11 0 -15 11 -15 40 0 29 -4 40 -15 40 -8 0 -15 6 -15 14 0
8 -13 17 -30 21 -27 6 -30 10 -30 45 0 24 -5 40 -15 44 -10 3 -15 19 -15 46 0
48 -17 54 -23 8 -2 -20 -4 -11 -5 25 -1 31 -6 57 -12 57 -5 0 -10 -5 -10 -11
0 -6 -7 -3 -16 5 -8 9 -22 16 -30 16 -10 0 -14 14 -14 55 0 42 -3 55 -15 55
-10 0 -15 10 -15 30 0 20 -5 30 -15 30 -11 0 -15 11 -15 40 0 29 -4 40 -15 40
-11 0 -15 12 -15 45 0 41 -2 45 -24 45 -21 0 -24 6 -31 55 -3 30 -10 55 -14
55 -5 0 -11 19 -14 42 -3 23 -13 45 -21 50 -12 7 -16 25 -16 73 0 61 -2 65
-25 71 -24 6 -25 9 -25 90 0 68 -3 84 -15 84 -9 0 -15 9 -15 25 0 16 -6 25
-15 25 -12 0 -15 13 -15 61 0 33 -4 58 -9 55 -4 -3 -11 33 -14 81 -4 54 -11
89 -19 94 -9 6 -14 40 -17 101 -2 53 -8 96 -14 100 -6 4 -13 39 -15 77 -3 52
-8 71 -18 71 -11 0 -14 24 -14 115 l0 115 -25 0 c-25 0 -25 1 -25 85 0 69 -3
85 -15 85 -13 0 -15 30 -17 208 -1 114 0 255 1 315 1 90 -1 107 -14 107 -11 0
-15 10 -15 35 0 24 5 35 15 35 21 0 21 68 0 76 -21 8 -22 124 -1 124 11 0 14
20 13 95 -1 70 -5 95 -14 95 -9 0 -13 16 -13 50 0 39 4 50 16 50 12 0 15 12
13 63 -4 114 0 167 14 167 8 0 12 20 12 65 0 45 -4 65 -12 65 -7 0 -13 9 -13
20 0 11 6 20 13 20 18 0 24 170 5 181 -10 7 -10 9 0 9 6 0 12 9 12 19 0 11 4
21 9 23 6 2 13 60 17 130 4 70 10 125 14 123 4 -3 11 34 15 82 4 47 10 80 15
74 8 -13 19 53 21 123 1 38 2 39 8 11 6 -24 9 -16 15 43 4 40 11 70 16 67 4
-3 12 44 15 105 4 60 11 110 16 110 5 0 9 29 9 65 0 51 3 65 15 65 11 0 15 12
15 45 0 33 4 45 15 45 11 0 15 11 15 40 0 29 4 40 15 40 12 0 15 15 15 76 0
44 4 73 9 69 6 -3 13 15 16 40 4 25 11 45 15 45 4 0 10 19 13 41 3 23 10 45
15 48 5 3 13 31 18 61 7 49 8 52 14 25 5 -23 8 -14 14 43 4 39 11 72 17 72 5
0 9 14 9 30 0 20 5 30 15 30 8 0 15 9 15 19 0 11 8 27 17 36 9 10 17 32 17 51
1 20 6 34 14 34 7 0 12 13 12 30 0 20 5 30 15 30 11 0 15 11 15 36 0 19 4 33
9 30 5 -3 12 13 15 36 5 30 10 38 16 29 5 -10 11 5 16 45 7 52 9 55 15 29 6
-29 7 -28 9 10 1 22 5 49 10 60 l9 20 1 -20 c1 -11 6 0 11 24 5 25 13 47 18
51 6 3 11 22 13 43 1 22 7 37 15 37 7 0 13 11 13 25 0 14 7 28 15 31 8 4 15
12 15 20 0 8 7 14 15 14 9 0 15 9 15 25 0 16 6 25 15 25 11 0 15 11 15 36 0
21 4 33 10 29 6 -3 10 4 10 17 0 13 3 34 7 46 4 18 8 20 14 10 6 -9 9 -4 9 15
0 17 5 27 15 27 10 0 15 10 15 30 0 19 5 30 14 30 9 0 16 17 20 45 4 25 11 45
17 45 5 0 9 18 9 40 0 29 4 40 15 40 9 0 15 9 15 25 0 13 7 28 15 33 9 4 17
18 18 30 1 12 7 22 14 22 11 0 18 27 14 53 0 4 6 7 14 7 8 0 15 7 15 15 0 8 4
15 9 15 5 0 12 14 16 30 4 17 11 28 16 24 5 -3 9 -1 9 4 0 5 9 19 20 32 11 13
20 29 20 35 0 7 7 15 15 19 8 3 15 12 15 21 0 8 5 15 10 15 6 0 10 11 10 25 0
16 6 25 15 25 9 0 15 9 15 25 0 14 7 28 15 31 8 4 15 12 15 20 0 8 7 14 15 14
8 0 15 9 15 20 0 12 11 31 24 43 14 13 28 36 32 51 5 19 9 24 15 15 5 -9 10
-4 15 15 4 17 9 23 14 16 4 -6 10 7 14 31 5 29 10 39 15 30 6 -10 10 -9 15 4
3 9 6 25 6 36 0 10 5 19 10 19 6 0 10 7 10 15 0 8 7 15 15 15 8 0 15 9 15 20
0 11 7 20 15 20 8 0 15 5 15 10 0 6 7 10 15 10 10 0 15 10 15 30 0 17 5 30 10
30 6 0 10 7 10 15 0 8 7 15 15 15 8 0 15 4 15 9 0 5 9 11 20 14 15 4 20 14 20
37 0 18 4 29 10 25 6 -3 10 3 10 14 0 11 7 26 15 35 8 8 15 19 15 25 0 6 7 11
15 11 9 0 15 9 15 25 0 14 7 28 15 31 8 4 15 12 15 20 0 8 7 14 15 14 8 0 15
7 15 15 0 8 7 15 15 15 8 0 15 7 15 15 0 8 7 15 16 15 8 0 13 4 10 8 -3 5 4
16 15 25 10 9 19 24 19 32 0 8 7 15 15 15 8 0 15 7 15 15 0 8 4 15 9 15 5 0
12 12 15 26 8 30 23 47 49 57 10 4 15 11 12 17 -3 5 1 10 9 10 9 0 16 9 16 20
0 11 7 20 15 20 8 0 15 9 15 19 0 10 7 21 15 25 8 3 15 13 15 21 0 9 5 13 11
10 6 -4 13 3 16 15 4 16 8 18 14 9 5 -9 10 -4 15 15 4 18 9 24 14 16 6 -9 10
-6 15 9 3 12 11 19 16 16 5 -4 9 -1 9 4 0 6 8 11 18 11 14 0 15 2 3 9 -12 8
-9 11 12 16 15 4 27 13 27 21 0 8 7 14 15 14 8 0 15 7 15 15 0 8 5 15 11 15
14 0 39 25 39 39 0 6 7 11 15 11 8 0 15 7 15 15 0 8 7 15 15 15 8 0 15 6 15
14 0 8 6 21 14 28 7 8 17 25 21 38 4 13 19 34 34 48 14 13 25 28 24 33 -2 5 4
9 12 9 8 0 15 7 15 15 0 10 10 15 30 15 20 0 30 5 30 15 0 8 4 15 9 15 5 0 12
11 15 25 4 14 13 25 21 25 8 0 23 9 32 20 10 11 23 20 31 20 7 0 10 5 7 10 -3
6 1 10 9 10 9 0 16 6 16 13 0 14 35 47 50 47 6 0 10 7 10 15 0 8 7 15 15 15 8
0 15 7 15 15 0 9 9 15 25 15 16 0 25 6 25 15 0 8 5 15 10 15 15 0 60 50 60 66
0 7 12 14 28 16 15 2 26 8 25 15 -1 6 11 14 27 18 17 4 30 11 30 16 0 5 7 9
15 9 8 0 15 7 15 15 0 9 9 15 25 15 16 0 25 6 25 15 0 8 7 15 15 15 8 0 15 6
15 14 0 19 87 106 106 106 8 0 14 5 14 10 0 6 7 10 15 10 8 0 15 7 15 15 0 8
7 15 15 15 8 0 15 7 15 15 0 8 7 15 15 15 8 0 15 7 15 15 0 10 10 15 30 15 20
0 30 5 30 15 0 8 5 15 11 15 6 0 24 14 41 30 16 17 36 30 44 30 8 0 14 4 14 9
0 5 9 11 21 14 12 3 18 10 14 16 -3 6 1 11 9 11 9 0 16 7 16 15 0 9 9 15 25
15 16 0 25 6 25 15 0 8 9 15 20 15 11 0 20 7 20 15 0 9 9 15 25 15 16 0 25 6
25 15 0 8 7 15 15 15 8 0 15 7 15 15 0 10 10 15 30 15 17 0 30 5 30 10 0 6 7
10 15 10 8 0 15 5 15 10 0 17 38 49 65 56 14 3 25 10 25 14 0 5 12 10 28 12
15 2 26 8 25 16 -2 7 8 12 27 12 20 0 30 5 30 15 0 8 7 15 15 15 8 0 15 7 15
15 0 10 10 15 30 15 20 0 30 5 30 15 0 10 10 15 31 15 16 0 28 4 25 9 -4 5 13
12 35 16 29 5 38 10 28 16 -11 7 -10 9 4 9 9 0 17 6 17 14 0 8 14 17 30 21 17
4 30 10 30 15 0 5 14 11 30 15 17 4 30 11 30 16 0 5 11 9 25 9 16 0 25 6 25
15 0 8 7 15 15 15 9 0 18 7 21 15 4 8 17 15 30 15 15 0 24 6 24 15 0 10 10 15
26 15 17 0 39 13 64 39 24 24 50 41 74 45 20 4 36 11 36 16 0 4 14 11 30 15
16 4 30 11 30 16 0 5 14 9 30 9 20 0 30 5 30 15 0 9 9 15 25 15 14 0 28 7 31
15 4 8 17 15 30 15 14 0 27 7 30 15 4 8 17 15 30 15 13 0 24 4 24 9 0 5 14 12
30 16 17 4 30 10 30 15 0 5 14 11 30 15 17 4 30 11 30 16 0 5 18 12 40 15 22
4 40 10 40 14 0 5 14 11 30 15 16 4 30 11 30 16 0 5 20 9 45 9 33 0 45 4 45
15 0 11 12 15 45 15 33 0 45 4 45 15 0 11 11 15 40 15 29 0 40 4 40 15 0 11
11 15 39 15 22 0 41 4 43 9 2 5 21 12 43 15 21 4 42 11 45 16 3 5 25 12 48 16
23 4 42 10 42 14 0 5 14 11 30 15 17 4 30 10 30 15 0 4 20 11 45 14 25 4 45
11 45 17 0 5 18 9 40 9 29 0 40 4 40 15 0 11 12 15 45 15 33 0 45 4 45 15 0
11 11 15 40 15 27 0 43 5 46 15 4 10 20 15 45 15 21 0 39 4 39 9 0 6 20 13 45
17 25 3 45 10 45 15 0 4 27 11 60 15 33 3 57 10 55 14 -3 5 22 11 55 15 33 4
57 11 54 16 -3 5 5 9 18 9 53 1 133 13 136 21 2 5 21 9 43 9 28 0 39 4 39 15
0 11 13 15 54 15 39 0 55 4 60 15 4 12 24 15 91 15 69 0 85 3 85 15 0 12 16
15 85 15 47 0 85 4 85 9 0 5 47 12 105 16 58 4 103 11 99 16 -3 5 12 9 33 9
65 0 143 12 137 21 -3 5 21 9 54 9 101 0 272 13 267 20 -2 4 100 10 228 13
144 4 233 10 235 17 5 13 479 14 484 1z m8425 -9658 c-2 -16 -4 -5 -4 22 0 28
2 40 4 28 2 -13 2 -35 0 -50z m-30 -180 c-3 -10 -5 -4 -5 12 0 17 2 24 5 18 2
-7 2 -21 0 -30z m-17210 -165 c-2 -13 -4 -5 -4 17 -1 22 1 32 4 23 2 -10 2
-28 0 -40z m515 -1508 c2 -22 0 -40 -4 -40 -5 0 -8 18 -8 40 0 22 -4 40 -10
40 -5 0 -10 5 -10 11 0 8 4 8 14 0 8 -7 16 -30 18 -51z m14916 -1212 c2 -4 15
-8 28 -8 14 0 27 -7 30 -15 4 -8 17 -15 30 -15 15 0 24 -6 24 -15 0 -8 7 -15
15 -15 8 0 15 -7 15 -15 0 -8 7 -15 15 -15 8 0 15 -7 15 -15 0 -11 11 -15 39
-15 26 0 41 -5 45 -16 3 -8 10 -12 16 -9 6 4 10 -7 10 -25 0 -23 5 -33 20 -37
11 -3 17 -9 14 -14 -3 -5 2 -12 10 -15 9 -3 16 -17 16 -30 0 -15 6 -24 15 -24
10 0 15 -10 15 -30 0 -20 -5 -30 -15 -30 -8 0 -15 -5 -15 -10 0 -6 7 -13 15
-16 11 -5 15 -21 15 -60 0 -41 4 -54 15 -54 10 0 15 -10 15 -30 0 -20 -5 -30
-15 -30 -12 0 -15 -18 -15 -100 0 -82 -3 -100 -15 -100 -10 0 -15 -10 -15 -30
0 -16 -4 -30 -10 -30 -5 0 -10 -11 -10 -25 0 -14 -7 -28 -15 -31 -8 -4 -15
-13 -15 -21 0 -8 5 -11 10 -8 6 3 10 -1 10 -9 0 -14 -18 -21 -42 -17 -5 0 -8
-6 -8 -14 0 -9 -6 -18 -14 -21 -7 -3 -16 -23 -20 -45 -5 -33 -10 -39 -31 -39
-16 0 -25 -6 -25 -15 0 -8 -7 -15 -15 -15 -8 0 -15 -7 -15 -15 0 -8 -7 -15
-15 -15 -10 0 -15 -10 -15 -30 0 -20 -5 -30 -15 -30 -9 0 -15 -9 -15 -25 0
-16 -6 -25 -15 -25 -8 0 -15 -7 -15 -15 0 -8 -4 -15 -10 -15 -5 0 -10 -7 -10
-15 0 -8 -7 -15 -15 -15 -8 0 -15 -6 -15 -14 0 -19 -87 -106 -106 -106 -8 0
-14 -7 -14 -15 0 -9 -10 -15 -26 -15 -26 0 -54 -20 -54 -39 0 -6 -13 -11 -30
-11 -20 0 -30 -5 -30 -15 0 -8 -7 -15 -15 -15 -8 0 -15 -7 -15 -15 0 -8 -7
-15 -15 -15 -8 0 -15 -4 -15 -9 0 -5 -13 -12 -30 -16 -16 -4 -30 -11 -30 -16
0 -5 -7 -9 -15 -9 -8 0 -15 -7 -15 -15 0 -9 -10 -15 -26 -15 -16 0 -28 -7 -30
-17 -4 -15 -18 -19 -72 -21 -37 -1 -68 -7 -70 -12 -2 -6 -10 -10 -18 -10 -8 0
-14 -7 -14 -15 0 -8 -7 -15 -15 -15 -8 0 -15 7 -15 15 0 27 -19 16 -22 -12 -3
-30 -38 -47 -38 -19 0 9 -4 16 -10 16 -5 0 -10 -7 -10 -15 0 -12 -19 -15 -115
-15 -96 0 -115 -3 -115 -15 0 -12 -15 -15 -75 -15 -60 0 -75 3 -75 15 0 12
-15 15 -75 15 -60 0 -75 3 -75 15 0 9 -9 15 -25 15 -20 0 -25 5 -25 25 0 16
-6 25 -15 25 -10 0 -15 10 -15 30 0 27 -3 30 -30 30 l-30 0 0 120 c0 100 3
120 15 120 8 0 15 7 15 15 0 8 7 15 15 15 8 0 15 5 15 10 0 6 11 10 25 10 16
0 25 6 25 15 0 8 7 15 15 15 10 0 15 10 15 30 0 26 3 30 29 30 25 0 31 5 36
30 4 17 11 30 16 30 5 0 9 7 9 15 0 10 10 15 30 15 25 0 30 4 30 25 0 20 5 25
25 25 21 0 25 5 25 30 0 23 4 30 20 30 11 0 20 5 20 10 0 6 11 21 24 33 13 12
26 32 30 45 5 15 15 22 32 22 13 0 24 -4 24 -10 0 -5 7 -10 15 -10 8 0 15 5
15 10 0 6 16 10 36 10 21 0 33 -4 29 -10 -3 -5 -1 -10 4 -10 6 0 11 4 11 9 0
5 23 11 50 15 45 6 50 9 50 31 0 16 6 25 15 25 8 0 15 6 15 13 0 8 4 7 10 -3
8 -13 10 -12 10 3 0 9 7 17 15 17 8 0 15 7 15 15 0 8 7 15 15 15 11 0 15 11
15 40 0 29 4 40 15 40 12 0 15 18 15 105 0 87 -3 105 -15 105 -8 0 -15 5 -15
10 0 6 7 10 15 10 8 0 15 6 15 14 0 8 7 17 16 20 8 3 12 10 9 16 -3 5 1 10 10
10 8 0 20 10 25 23 5 12 9 18 9 13 1 -13 41 30 41 44 0 5 7 10 15 10 8 0 15 7
15 15 0 8 7 15 15 15 9 0 15 9 15 24 0 19 7 26 30 31 23 5 30 12 30 31 0 15 6
24 15 24 8 0 15 9 15 20 0 15 7 20 25 20 14 0 25 5 25 10 0 6 7 10 15 10 8 0
15 7 15 15 0 8 7 15 15 15 10 0 15 10 15 30 0 29 2 30 45 30 41 0 45 2 45 24
0 20 6 25 33 29 39 4 81 -3 85 -15z"/>
<path d="M6559 12961 c9 -6 -4 -11 -40 -16 -30 -4 -57 -12 -60 -17 -3 -5 -25
-12 -47 -15 -23 -3 -40 -11 -39 -17 1 -6 -10 -12 -25 -14 -16 -2 -28 -8 -28
-13 0 -5 -9 -9 -20 -9 -11 0 -20 -7 -20 -15 0 -9 -9 -15 -25 -15 -16 0 -25 -6
-25 -15 0 -8 -7 -15 -15 -15 -8 0 -15 -7 -15 -15 0 -10 -10 -15 -30 -15 -20 0
-30 -5 -30 -15 0 -8 -7 -15 -15 -15 -8 0 -15 -5 -15 -11 0 -14 -85 -99 -99
-99 -6 0 -11 -7 -11 -15 0 -8 -7 -15 -15 -15 -8 0 -15 -7 -15 -15 0 -8 -7 -15
-15 -15 -8 0 -15 -7 -15 -15 0 -8 -4 -15 -10 -15 -5 0 -12 -11 -16 -25 -3 -14
-12 -25 -20 -25 -8 0 -14 -9 -14 -20 0 -11 -4 -20 -9 -20 -5 0 -12 -11 -15
-25 -4 -14 -11 -25 -16 -25 -6 0 -10 -7 -10 -15 0 -8 -6 -15 -14 -15 -8 0 -17
-13 -21 -30 -4 -16 -10 -30 -15 -30 -4 0 -11 -11 -14 -25 -4 -14 -11 -25 -16
-25 -6 0 -10 -7 -10 -15 0 -9 -7 -18 -16 -22 -13 -5 -13 -7 -2 -14 10 -7 10
-9 1 -9 -7 0 -13 -9 -13 -20 0 -11 -7 -20 -15 -20 -8 0 -14 -3 -14 -7 6 -35
-3 -73 -16 -73 -10 0 -15 -10 -15 -30 0 -20 -5 -30 -15 -30 -11 0 -15 -12 -15
-46 0 -25 -4 -43 -9 -40 -5 3 -11 -13 -14 -36 -3 -22 -10 -44 -15 -47 -5 -3
-12 -24 -15 -45 -4 -22 -10 -42 -15 -45 -5 -3 -12 -28 -15 -56 -3 -27 -10 -51
-16 -53 -6 -2 -11 -23 -11 -47 0 -54 -10 -106 -20 -100 -4 2 -10 -41 -13 -98
-3 -59 -10 -103 -16 -105 -15 -5 -15 -704 0 -719 6 -6 13 -54 16 -106 3 -53 9
-94 13 -92 10 6 20 -46 20 -101 0 -24 4 -44 9 -44 5 0 12 -13 16 -30 8 -38 25
-39 26 -2 0 15 4 36 9 47 l9 20 2 -20 c1 -11 5 5 9 35 5 30 13 56 19 58 6 2
11 16 11 30 0 15 7 36 15 46 8 11 15 32 15 48 0 18 5 28 15 28 10 0 15 10 15
30 0 22 5 30 18 31 14 0 14 2 -3 9 -17 7 -17 9 -2 9 10 1 17 9 17 21 0 11 4
20 9 20 5 0 12 19 16 43 6 35 8 38 15 22 7 -17 9 -14 9 13 1 21 6 32 16 32 9
0 15 9 15 25 0 14 6 28 14 31 8 3 17 16 20 30 4 13 11 24 16 24 6 0 10 7 10
15 0 9 7 18 15 21 8 4 15 17 15 30 0 15 6 24 15 24 8 0 15 7 15 15 0 8 7 15
15 15 8 0 15 7 15 15 0 8 7 15 15 15 8 0 15 6 15 14 0 8 6 17 13 19 9 4 9 6 0
6 -14 1 83 101 97 101 6 0 10 4 10 10 0 19 35 50 57 50 14 0 23 6 23 15 0 8 7
15 15 15 8 0 15 7 15 15 0 9 9 15 25 15 16 0 25 6 25 15 0 8 6 15 14 15 8 0
16 7 20 15 3 8 16 15 30 15 13 0 26 7 30 15 3 8 17 15 31 15 14 0 25 4 25 9 0
4 19 11 42 14 24 3 44 11 46 16 2 6 24 11 48 11 32 0 44 4 44 15 0 13 24 15
155 15 131 0 155 -2 155 -15 0 -11 13 -15 54 -15 39 0 55 -4 60 -15 3 -9 18
-15 36 -15 17 0 30 -5 30 -12 0 -9 4 -8 10 2 6 9 10 10 10 3 0 -6 14 -15 31
-18 23 -5 28 -9 18 -16 -10 -6 -6 -9 14 -9 17 0 27 -5 27 -15 0 -10 10 -15 30
-15 20 0 30 -5 30 -15 0 -8 7 -15 15 -15 8 0 15 -7 15 -15 0 -9 9 -15 25 -15
16 0 25 -6 25 -15 0 -8 6 -15 13 -15 14 0 47 -35 47 -50 0 -6 7 -10 15 -10 8
0 15 -4 15 -10 0 -5 7 -10 15 -10 8 0 15 -7 15 -15 0 -8 7 -15 15 -15 8 0 15
-7 15 -15 0 -8 7 -15 15 -15 8 0 15 -6 15 -14 0 -8 7 -16 15 -20 8 -3 15 -16
15 -28 0 -17 3 -19 9 -9 7 10 11 5 16 -18 3 -17 13 -31 21 -31 8 0 14 -7 14
-15 0 -8 4 -15 10 -15 5 0 12 -11 16 -25 3 -14 10 -25 15 -25 5 0 9 -9 9 -20
0 -11 7 -20 15 -20 9 0 15 -9 15 -25 0 -16 6 -25 15 -25 10 0 15 -10 15 -30 0
-20 5 -30 15 -30 10 0 15 -10 15 -30 0 -20 5 -30 15 -30 9 0 15 -9 15 -24 0
-13 7 -26 15 -30 8 -3 15 -16 15 -30 0 -13 7 -26 15 -30 10 -3 15 -20 16 -48
0 -31 3 -37 8 -24 7 18 8 18 14 -5 4 -13 7 -34 7 -47 0 -13 4 -21 9 -18 10 6
21 -26 21 -61 0 -13 5 -23 10 -23 6 0 10 -19 10 -42 0 -48 8 -63 30 -63 23 0
30 16 30 71 0 37 4 54 15 58 12 4 15 25 16 93 0 59 3 81 9 68 6 -14 9 2 9 51
1 119 13 254 22 248 5 -3 9 70 9 161 0 91 -4 164 -9 161 -9 -6 -21 133 -21
243 0 46 -3 62 -10 51 -7 -10 -10 12 -10 73 0 71 -3 87 -15 87 -12 0 -15 13
-15 60 0 43 -4 60 -13 60 -9 0 -14 17 -16 53 -1 32 -7 56 -16 63 -8 6 -15 27
-15 47 0 19 -5 37 -10 39 -6 2 -13 21 -17 43 -3 22 -12 46 -20 53 -7 7 -13 27
-13 43 0 19 -5 29 -15 29 -10 0 -15 10 -15 30 0 17 -4 30 -9 30 -5 0 -12 12
-15 26 -4 15 -14 33 -21 41 -8 8 -15 23 -15 34 0 10 -4 19 -10 19 -5 0 -10 11
-10 25 0 16 -6 25 -15 25 -10 0 -15 10 -15 30 0 20 -5 30 -15 30 -8 0 -15 7
-15 15 0 8 -7 15 -15 15 -9 0 -15 9 -15 24 0 13 -7 26 -15 30 -8 3 -15 12 -15
21 0 8 -4 15 -9 15 -5 0 -13 9 -16 21 -8 24 -40 59 -55 59 -5 0 -10 7 -10 15
0 8 -4 15 -10 15 -5 0 -10 7 -10 15 0 8 -7 15 -15 15 -13 0 -20 17 -17 41 1 4
-11 10 -25 14 -20 5 -23 9 -14 15 10 5 4 10 -19 15 -22 5 -28 10 -20 15 9 6 7
10 -9 15 -11 3 -21 11 -21 16 0 5 -7 9 -15 9 -9 0 -18 7 -21 15 -4 8 -12 15
-20 15 -8 0 -14 7 -14 15 0 9 -9 15 -25 15 -16 0 -25 6 -25 15 0 8 -7 15 -15
15 -8 0 -15 7 -15 15 0 10 -10 15 -29 15 -16 0 -31 4 -33 10 -1 5 -14 11 -27
13 -14 2 -27 9 -29 15 -2 7 -14 12 -27 12 -13 0 -28 6 -32 14 -4 7 -30 16 -58
19 -27 3 -51 10 -53 16 -2 7 -64 11 -190 11 -111 0 -181 -4 -173 -9z"/>
<path d="M12748 12959 c-2 -5 -22 -13 -46 -16 -23 -3 -42 -9 -42 -14 0 -4 -17
-11 -37 -15 -21 -4 -41 -12 -45 -17 -3 -6 -17 -12 -30 -14 -13 -2 -24 -8 -26
-13 -2 -6 -17 -10 -33 -10 -19 0 -29 -5 -29 -15 0 -8 -7 -15 -15 -15 -8 0 -15
-7 -15 -15 0 -9 -9 -15 -25 -15 -16 0 -25 -6 -25 -15 0 -8 -6 -15 -14 -15 -8
0 -16 -7 -20 -15 -3 -8 -12 -15 -21 -15 -8 0 -15 -4 -15 -9 0 -5 -10 -13 -21
-16 -16 -5 -18 -9 -9 -15 8 -5 2 -10 -19 -15 -17 -4 -28 -11 -25 -16 3 -6 -3
-13 -15 -16 -14 -3 -21 -13 -21 -29 0 -15 -6 -24 -15 -24 -8 0 -15 -7 -15 -15
0 -8 -4 -15 -10 -15 -5 0 -10 -7 -10 -15 0 -8 -4 -15 -10 -15 -15 0 -47 -35
-55 -59 -3 -12 -11 -21 -16 -21 -5 0 -9 -9 -9 -20 0 -11 -7 -20 -15 -20 -13 0
-20 -18 -16 -42 0 -5 -6 -8 -14 -8 -8 0 -15 -7 -15 -15 0 -8 -7 -15 -15 -15
-10 0 -15 -10 -15 -30 0 -20 -5 -30 -15 -30 -9 0 -15 -9 -15 -25 0 -14 -4 -25
-10 -25 -5 0 -10 -9 -10 -19 0 -11 -7 -26 -15 -34 -7 -8 -17 -26 -21 -41 -3
-14 -10 -26 -15 -26 -5 0 -9 -13 -9 -30 0 -20 -5 -30 -15 -30 -10 0 -15 -10
-15 -29 0 -16 -7 -36 -15 -45 -8 -8 -15 -28 -15 -45 0 -16 -7 -36 -15 -45 -8
-8 -15 -30 -15 -49 0 -22 -6 -37 -15 -41 -10 -4 -15 -20 -15 -51 0 -29 -4 -45
-12 -45 -9 0 -8 -4 2 -10 13 -8 12 -10 -2 -10 -15 0 -18 -9 -18 -55 0 -40 -4
-57 -15 -61 -12 -5 -15 -25 -16 -93 0 -57 -3 -79 -9 -66 -6 14 -9 -2 -9 -51
-1 -119 -13 -254 -22 -248 -5 3 -9 -70 -9 -161 0 -91 4 -164 9 -161 9 6 21
-135 21 -246 0 -44 4 -67 10 -63 6 4 10 -22 10 -70 0 -58 3 -77 15 -81 10 -4
15 -21 15 -54 0 -61 7 -80 30 -80 21 0 30 19 30 65 0 20 6 35 15 39 10 4 15
20 15 51 0 28 4 44 10 40 6 -3 10 4 10 17 0 13 3 34 7 47 6 23 7 23 14 5 5
-13 8 -7 8 24 1 28 6 45 16 48 8 4 15 17 15 30 0 14 7 27 15 30 8 4 15 17 15
30 0 15 6 24 15 24 10 0 15 10 15 30 0 20 5 30 15 30 10 0 15 10 15 30 0 20 5
30 15 30 9 0 15 9 15 25 0 16 6 25 15 25 8 0 15 9 15 20 0 11 7 20 15 20 9 0
15 9 15 25 0 14 5 25 10 25 6 0 10 7 10 15 0 8 6 15 14 15 8 0 18 14 21 31 5
22 10 28 15 19 6 -9 9 -6 12 11 2 13 9 23 16 21 6 -1 12 5 12 13 0 9 7 18 15
21 8 4 15 12 15 20 0 8 7 14 15 14 8 0 15 7 15 15 0 8 7 15 15 15 8 0 15 5 15
10 0 6 7 10 15 10 8 0 15 4 15 10 0 15 33 50 47 50 7 0 13 7 13 15 0 9 9 15
25 15 16 0 25 6 25 15 0 8 6 15 14 15 8 0 16 7 20 15 3 8 17 15 31 15 16 0 25
6 25 15 0 10 10 15 28 15 20 0 23 3 12 10 -11 7 -4 11 28 16 23 4 42 10 42 15
0 5 14 9 30 9 18 0 33 6 36 15 5 11 21 15 60 15 41 0 54 4 54 15 0 13 24 15
155 15 131 0 155 -2 155 -15 0 -11 12 -15 50 -15 34 0 50 -4 50 -13 0 -8 15
-14 38 -15 20 -2 39 -7 40 -12 2 -6 15 -10 28 -10 14 0 27 -7 30 -15 4 -8 17
-15 30 -15 14 0 27 -7 30 -15 4 -8 12 -15 20 -15 8 0 14 -7 14 -15 0 -9 9 -15
25 -15 16 0 25 -6 25 -15 0 -8 7 -15 15 -15 8 0 15 -7 15 -15 0 -10 10 -15 30
-15 20 0 30 -5 30 -15 0 -8 5 -15 10 -15 6 0 10 -7 10 -15 0 -8 4 -15 10 -15
15 0 120 -110 120 -126 0 -8 5 -14 10 -14 6 0 10 -7 10 -15 0 -8 7 -15 15 -15
8 0 15 -7 15 -15 0 -8 7 -15 15 -15 9 0 15 -9 15 -25 0 -16 6 -25 15 -25 8 0
15 -9 15 -20 0 -11 4 -20 10 -20 5 0 12 -11 16 -24 3 -14 12 -27 20 -30 8 -3
14 -17 14 -31 0 -16 6 -25 15 -25 10 0 15 -11 16 -32 0 -27 2 -30 9 -13 7 16
9 13 15 -22 4 -24 11 -43 16 -43 5 0 9 -9 9 -20 0 -12 7 -20 18 -21 14 0 14
-2 -3 -9 -17 -7 -17 -9 -2 -9 12 -1 17 -9 17 -31 0 -20 5 -30 15 -30 10 0 15
-10 15 -29 0 -16 7 -36 15 -45 8 -8 15 -28 15 -45 0 -21 5 -31 15 -31 11 0 15
-11 15 -37 0 -21 7 -47 15 -57 8 -11 15 -32 15 -48 0 -37 17 -36 25 2 4 17 11
30 16 30 5 0 9 13 9 29 0 49 12 121 20 116 4 -2 10 39 13 93 3 54 10 98 16
100 16 5 15 729 0 734 -7 2 -14 42 -17 101 -2 53 -8 94 -12 92 -10 -6 -20 46
-20 100 0 24 -5 45 -11 47 -6 2 -13 26 -16 53 -3 28 -10 53 -15 56 -5 3 -12
25 -15 48 -3 22 -10 41 -14 41 -5 0 -9 18 -9 40 0 29 -4 40 -15 40 -11 0 -15
12 -15 45 0 33 -4 45 -15 45 -10 0 -15 10 -15 30 0 20 -5 30 -15 30 -13 0 -22
38 -16 73 0 4 -6 7 -14 7 -8 0 -15 9 -15 20 0 11 -6 20 -12 20 -10 0 -10 2 0
9 11 7 11 9 -2 14 -9 4 -16 13 -16 22 0 8 -4 15 -10 15 -5 0 -12 11 -16 25 -3
14 -10 25 -14 25 -5 0 -11 14 -15 30 -4 17 -13 30 -21 30 -8 0 -14 7 -14 15 0
8 -4 15 -10 15 -5 0 -10 11 -10 25 0 16 -6 25 -15 25 -8 0 -15 9 -15 20 0 11
-6 20 -14 20 -8 0 -17 11 -20 25 -4 14 -11 25 -16 25 -6 0 -10 7 -10 15 0 8
-7 15 -15 15 -8 0 -15 7 -15 15 0 8 -7 15 -15 15 -8 0 -15 7 -15 15 0 8 -5 15
-11 15 -14 0 -99 85 -99 99 0 6 -7 11 -15 11 -8 0 -15 7 -15 15 0 10 -10 15
-30 15 -20 0 -30 5 -30 15 0 8 -7 15 -15 15 -8 0 -15 7 -15 15 0 9 -9 15 -25
15 -16 0 -25 6 -25 15 0 8 -9 15 -20 15 -11 0 -20 4 -20 9 0 5 -12 11 -27 13
-16 2 -27 8 -26 14 1 6 -16 14 -39 17 -22 3 -44 10 -47 15 -3 5 -30 13 -60 17
-36 5 -49 10 -40 16 8 5 -62 9 -173 9 -123 0 -188 -4 -190 -11z"/>
<path d="M1421 12794 c0 -11 3 -14 6 -6 3 7 2 16 -1 19 -3 4 -6 -2 -5 -13z"/>
<path d="M18211 12764 c0 -11 3 -14 6 -6 3 7 2 16 -1 19 -3 4 -6 -2 -5 -13z"/>
<path d="M18442 11620 c0 -19 2 -27 5 -17 2 9 2 25 0 35 -3 9 -5 1 -5 -18z"/>
<path d="M10273 3803 c9 -2 25 -2 35 0 9 3 1 5 -18 5 -19 0 -27 -2 -17 -5z"/>
<path d="M9348 19083 c7 -3 16 -2 19 1 4 3 -2 6 -13 5 -11 0 -14 -3 -6 -6z"/>
</g>
</svg>
